<?xml version="1.0" standalone="no"?>
<!DOCTYPE svg PUBLIC "-//W3C//DTD SVG 1.1//EN" "http://www.w3.org/Graphics/SVG/1.1/DTD/svg11.dtd" >
<svg xmlns="http://www.w3.org/2000/svg" xmlns:xlink="http://www.w3.org/1999/xlink" version="1.1">
<metadata></metadata>
<defs>
<font id="martelbold" horiz-adv-x="1570" >
<font-face units-per-em="2048" ascent="1638" descent="-410" />
<missing-glyph horiz-adv-x="456" />
<glyph unicode="&#xfb01;" horiz-adv-x="1581" d="M76 958v89l207 65v90q0 137 66.5 253t169 183.5t204.5 67.5q59 0 105 -7t65 -18v-202q-27 14 -85 27.5t-114 13.5q-59 0 -93 -17.5t-50 -65.5t-16 -143v-176h301v-160h-301v-831l233 -23v-104h-672v104l187 25v829h-207zM975 0v104l158 23v747l-134 99v74l320 96l59 -21 v-995l156 -23v-104h-559zM1063 1503q0 72 57.5 123t126.5 51q76 0 116 -40t40 -107q0 -76 -56.5 -125t-129.5 -49q-61 0 -107.5 41t-46.5 106z" />
<glyph unicode="&#xfb02;" horiz-adv-x="1587" d="M76 958v89l207 65v90q0 137 66.5 253t169 183.5t204.5 67.5q59 0 105 -7t65 -18v-202q-27 14 -85 27.5t-114 13.5q-59 0 -93 -17.5t-50 -65.5t-16 -143v-176h301v-160h-301v-831l233 -23v-104h-672v104l187 25v829h-207zM969 0v104l151 23v1305l-149 43v108l356 43 l47 -20v-1477l176 -25v-104h-581z" />
<glyph horiz-adv-x="0" />
<glyph unicode="&#xd;" horiz-adv-x="0" />
<glyph unicode=" "  horiz-adv-x="456" />
<glyph unicode="&#x09;" horiz-adv-x="456" />
<glyph unicode="&#xa0;" horiz-adv-x="456" />
<glyph unicode="!" horiz-adv-x="743" d="M197 1780h338l-103 -1262h-141zM201 121q0 70 57 123t125 53q76 0 117 -41t41 -109q0 -76 -56.5 -125t-128.5 -49q-63 0 -109 41t-46 107z" />
<glyph unicode="&#x22;" horiz-adv-x="1259" d="M252 1782h276l-61 -819h-154zM731 1782h277l-62 -819h-153z" />
<glyph unicode="#" horiz-adv-x="1452" d="M137 356v164h230l30 352h-235v160h244l30 324h197l-25 -324h285l27 324h202l-26 -324h219v-160h-234l-28 -352h225l2 -164h-238l-30 -356h-197l27 356h-285l-31 -356h-198l28 356h-219zM567 520h283l31 352h-285z" />
<glyph unicode="$" horiz-adv-x="1304" d="M158 61v353h110l76 -213q51 -59 130 -82t181 -23q117 0 198 63.5t81 184.5q0 96 -81 170t-235 162q-154 82 -245.5 145.5t-151 148.5t-59.5 197q0 170 125 271.5t301 124.5l4 182h180l-6 -182q98 -6 187 -25.5t132 -44.5v-299h-114l-84 199q-29 27 -94.5 42t-128.5 15 q-100 0 -181.5 -53.5t-83.5 -165.5q0 -102 83 -179t237 -159q166 -90 254 -149.5t148.5 -143.5t60.5 -194q0 -197 -136.5 -306.5t-349.5 -122.5l-10 -213h-182l8 218q-109 8 -210 31.5t-144 47.5z" />
<glyph unicode="%" horiz-adv-x="1898" d="M98 1053q0 117 51.5 201.5t135.5 128.5t184 44q154 0 234.5 -101t80.5 -263q0 -115 -49 -199t-133 -128t-182 -44q-94 0 -168 49.5t-114 131t-40 180.5zM293 1061q0 -102 42 -176t109 -74q70 0 108 64.5t38 179.5q0 111 -39 182.5t-109 71.5q-71 0 -110 -70t-39 -178z M541 -61l606 1722h190l-608 -1722h-188zM1106 524q0 117 51 202t135 129t185 44q153 0 234 -101.5t81 -262.5q0 -115 -49 -199t-132 -128t-181 -44q-96 0 -170 49t-114 131t-40 180zM1303 532q0 -102 43 -175.5t108 -73.5q72 0 110 64.5t38 178.5q0 111 -40 182.5t-108 71.5 q-74 0 -112.5 -68.5t-38.5 -179.5z" />
<glyph unicode="&#x26;" horiz-adv-x="1576" d="M150 375q0 135 83.5 228t241.5 169q-84 113 -130 204t-46 189q0 123 55.5 212t150.5 136.5t210 47.5q116 0 202.5 -44t131.5 -121t45 -171q0 -139 -96.5 -255t-239.5 -196q70 -90 196.5 -236.5t194.5 -209.5q16 55 16 147q0 94 -11 164t-28 98h234q33 -66 33 -186 q0 -86 -28 -176t-81 -162q111 -80 209 -92v-107q-39 -16 -102 -16q-68 0 -142.5 18.5t-134.5 57.5q-70 -49 -169 -77t-202 -28q-242 0 -417.5 93.5t-175.5 312.5zM391 410q0 -143 102.5 -224.5t264.5 -81.5q80 0 139 11.5t102 42.5q-94 82 -233 239.5t-217 266.5 q-82 -58 -120 -113t-38 -141zM522 1253q-6 -115 39 -203.5t123 -181.5q96 57 144.5 141.5t48.5 200.5q0 92 -43 164t-138 72q-67 0 -119.5 -49t-54.5 -144z" />
<glyph unicode="'" horiz-adv-x="782" d="M252 1782h276l-61 -819h-154z" />
<glyph unicode="(" horiz-adv-x="882" d="M131 721q0 244 84 459t200.5 363.5t217.5 207.5l106 -74q-78 -57 -164 -192t-145 -334t-59 -432q0 -229 63.5 -429t152.5 -338t173 -204l-119 -80q-115 64 -231.5 203t-197.5 356t-81 494z" />
<glyph unicode=")" horiz-adv-x="882" d="M123 1673l119 82q115 -66 231.5 -205t197.5 -356t81 -492q0 -244 -84 -458.5t-201 -363t-217 -208.5l-107 74q78 55 164 191.5t145.5 335t59.5 432.5q0 227 -63.5 426.5t-153.5 339t-172 202.5z" />
<glyph unicode="*" horiz-adv-x="1273" d="M121 1464l117 174l276 -219l76 -80l-39 121l-29 330h217l-26 -330l-47 -121l90 93l262 204l137 -174l-348 -155l-111 -31l111 -29l346 -174l-137 -160l-271 220l-77 84l39 -111l32 -342h-217l29 342l39 111l-72 -87l-276 -219l-119 162l332 176l104 27l-102 27z" />
<glyph unicode="+" horiz-adv-x="1288" d="M176 717v192h215l162 -12l-6 176v221h194v-221l-10 -176l143 12h238v-192h-238l-143 8l10 -174v-221h-194v221l6 174l-162 -8h-215z" />
<glyph unicode="," horiz-adv-x="722" d="M166 -432q76 27 126 106.5t50 173.5q0 74 -46 135.5t-108 65.5v57l146 189q115 -33 174 -135.5t59 -214.5q-2 -170 -100 -297t-244 -180l-57 63v37z" />
<glyph unicode="-" horiz-adv-x="1269" d="M180 725v180h910v-180h-910z" />
<glyph unicode="." horiz-adv-x="741" d="M201 123q0 72 57 124t127 52q76 0 116 -42t40 -110q0 -76 -56.5 -124t-128.5 -48q-63 0 -109 41t-46 107z" />
<glyph unicode="/" horiz-adv-x="819" d="M31 -362l553 1961h209l-553 -1961h-209z" />
<glyph unicode="0" horiz-adv-x="1353" d="M123 621q0 186 79 330.5t212 222t291 77.5q272 0 401 -166.5t129 -453.5q0 -186 -75 -337t-204 -236t-284 -85q-180 0 -304 87t-184.5 233.5t-60.5 327.5zM395 645q0 -135 33 -261t97.5 -206t158.5 -82q154 -4 215.5 129t61.5 387q0 227 -72 371.5t-219 144.5 q-150 0 -212.5 -124.5t-62.5 -358.5z" />
<glyph unicode="1" horiz-adv-x="956" d="M94 1059q90 27 258 101.5t209 105.5l84 -17l-4 -1110l256 -30v-109h-782v109l280 30v842l-274 -43z" />
<glyph unicode="2" horiz-adv-x="1234" d="M115 98q274 170 463.5 372t189.5 374q0 104 -62.5 180t-183.5 76q-94 0 -184 -42t-162 -104l-61 97q61 84 204.5 148.5t286.5 64.5q129 0 225.5 -47.5t147.5 -127t51 -176.5q0 -203 -172 -398.5t-459 -373.5l553 54l95 131l108 -33l-68 -293h-935z" />
<glyph unicode="3" horiz-adv-x="1087" d="M57 1106q72 68 191 116t260 48q166 0 278.5 -84t112.5 -248q0 -76 -47 -157t-122 -142t-157 -84q131 2 225.5 -43t143.5 -124t49 -179q0 -145 -90 -269t-247.5 -198t-348.5 -74q-96 0 -184 17v135q63 -14 137 -15q129 0 238.5 48.5t173 134.5t63.5 192q0 141 -72.5 213 t-236.5 78q-49 -12 -74 -16l-98 -21v152q162 25 278.5 110.5t116.5 200.5q0 109 -60.5 161t-152.5 52q-98 0 -164.5 -26.5t-146.5 -79.5z" />
<glyph unicode="4" horiz-adv-x="1273" d="M76 106l119 207q190 334 297.5 531.5t212.5 429.5h75l158 -113l-580 -928l-71 -100l493 37l6 436l213 43v-461l199 15v-203h-199v-377h-229l6 377h-663z" />
<glyph unicode="5" horiz-adv-x="1099" d="M125 -338l2 115q20 -2 61 -2q139 0 263 57t200 160.5t76 238.5q0 170 -83 250t-226 80q-104 0 -221 -37l-68 33l72 680h575l29 25h121l-62 -228h-487l-70 -379q117 49 238 50q121 0 223 -51.5t162.5 -152t60.5 -239.5q0 -160 -102.5 -301t-276.5 -226t-376 -85 q-70 0 -111 12z" />
<glyph unicode="6" horiz-adv-x="1286" d="M123 559q0 244 126 454t329.5 349t422.5 178l56 -108q-195 -57 -346.5 -180.5t-238.5 -282t-89 -316.5q-6 -250 57.5 -402.5t237.5 -152.5q127 0 193.5 106.5t66.5 252.5q0 158 -65.5 254t-170.5 96q-61 0 -98 -12.5t-74 -34.5l-47 84q29 49 121 87t184 38 q125 0 213.5 -60.5t133.5 -161t45 -217.5q0 -143 -66.5 -271t-188.5 -205t-282 -77q-156 0 -273.5 78t-182 210t-64.5 294z" />
<glyph unicode="7" horiz-adv-x="1234" d="M135 895l45 358h918l43 -47l-559 -1530l-254 91q145 284 291.5 609.5t316.5 729.5l-574 -25l-88 -194z" />
<glyph unicode="8" horiz-adv-x="1261" d="M119 373q0 121 84 231.5t233 177.5q-115 82 -178 174.5t-63 210.5q0 125 64.5 213t171 132t226.5 44q121 0 220.5 -43t157 -122.5t57.5 -186.5q0 -111 -80 -227.5t-193 -169.5q162 -100 251 -194.5t89 -209.5q0 -141 -72.5 -238t-189.5 -144.5t-252 -47.5t-256 44 t-195.5 134.5t-74.5 221.5zM350 434q0 -94 39 -172t112.5 -124t170.5 -46q68 0 127 31t95 86t36 127q0 68 -42 124t-104.5 100t-171.5 110l-69 43q-84 -47 -138.5 -121t-54.5 -158zM401 1219q0 -90 80 -170t224 -168q78 33 128 114.5t50 173.5q0 119 -69 197t-169 78 q-96 0 -170 -63.5t-74 -161.5z" />
<glyph unicode="9" horiz-adv-x="1284" d="M111 700q0 145 66.5 272.5t188 204t281.5 76.5q158 0 272.5 -77.5t176 -209.5t61.5 -292q0 -256 -122 -491.5t-319.5 -393.5t-412.5 -197l-51 111q186 57 332.5 199.5t227.5 325t85 352.5l2 69q0 221 -63.5 353.5t-223.5 132.5q-127 0 -194.5 -107.5t-67.5 -253.5 q0 -156 67.5 -253t170.5 -97q51 0 98 14.5t74 34.5l47 -86q-39 -55 -124 -89t-181 -34q-123 0 -212 60.5t-134 160t-45 215.5z" />
<glyph unicode=":" horiz-adv-x="741" d="M201 119q0 72 57 125t127 53q76 0 116 -42t42 -110q0 -76 -56.5 -125t-128.5 -49q-63 0 -110 41t-47 107zM201 903q0 72 59 124t129 52q74 0 113 -41t41 -106q0 -76 -56.5 -125t-128.5 -49q-63 0 -110 40t-47 105z" />
<glyph unicode=";" horiz-adv-x="749" d="M203 905q0 72 57 123t125 51q78 0 118 -41t40 -108q0 -76 -56.5 -124t-128.5 -48q-63 0 -109 40t-46 107zM205 -432q76 27 126 107.5t50 172.5q0 74 -46 135.5t-106 65.5v57l144 189q112 -33 172.5 -133.5t60.5 -210.5q0 -172 -99 -301t-243 -182l-59 63v37z" />
<glyph unicode="&#x3c;" horiz-adv-x="1329" d="M147 690v135l969 498v-225l-725 -340l725 -330v-227z" />
<glyph unicode="=" horiz-adv-x="1269" d="M180 489v181h910v-181h-910zM180 936v178h910v-178h-910z" />
<glyph unicode="&#x3e;" horiz-adv-x="1329" d="M213 195v223l725 342l-725 327v230l969 -490v-137z" />
<glyph unicode="?" horiz-adv-x="1030" d="M106 1798q18 20 83 33.5t128 13.5q205 -4 344.5 -86t208 -211t68.5 -276q0 -68 -9 -105t-36 -65.5t-84 -59.5q-35 -18 -104 -51q-113 -55 -162 -90t-49 -82q0 -57 20.5 -119.5t45 -119t30.5 -72.5h-158q-61 53 -118.5 160.5t-57.5 175.5q2 70 87 120t237 105 q74 27 110 43q43 20 59.5 34.5t16.5 35.5q2 113 -60.5 215t-175 165.5t-254.5 63.5q-113 0 -163 -27zM379 121q0 72 57.5 125t124.5 53q76 0 117 -42t41 -110q0 -76 -56.5 -125t-127.5 -49q-63 0 -109.5 41t-46.5 107z" />
<glyph unicode="@" horiz-adv-x="2185" d="M201 403q0 299 144 538t384 372t514 133q211 0 381 -74t268.5 -217t98.5 -342q0 -238 -86 -414t-220.5 -268t-275.5 -92q-68 0 -101.5 49t-33.5 156q0 70 20 192q-74 -172 -178 -291.5t-215 -119.5q-72 0 -135.5 50t-103 138t-39.5 201q0 152 61 301t172 245.5t248 96.5 q61 0 127.5 -12.5t118.5 -38.5q23 55 51 49l162 -54q-61 -313 -82 -616q-4 -29 -4 -82q0 -55 8 -90t22 -35q57 0 129 80t122 208t50 265q0 299 -181 436.5t-468 137.5q-201 0 -375 -102.5t-278.5 -290t-104.5 -427.5q0 -367 195 -541.5t522 -174.5q84 0 202 22.5t165 48.5 l47 -102q-68 -51 -200 -84t-277 -33q-246 0 -439.5 94.5t-304 271.5t-110.5 416zM829 506q0 -111 27 -202t96 -91q53 0 131 107.5t141.5 255t75.5 258.5q-27 25 -88 40t-106 15q-141 0 -209 -107.5t-68 -275.5z" />
<glyph unicode="A" horiz-adv-x="1529" d="M2 0v106l139 33l510 1413h230l489 -1413l158 -35v-104h-586v104l154 35l-82 260h-578l-86 -258l160 -35v-106h-508zM481 543h486l-150 473l-88 293z" />
<glyph unicode="B" horiz-adv-x="1431" d="M96 0v106l164 33v1272l-160 19v122h275q33 0 61.5 2t50.5 5q135 8 222 8q260 0 401 -90.5t141 -268.5q0 -141 -71.5 -240.5t-208.5 -129.5q106 -2 194 -52.5t138.5 -135.5t50.5 -191q0 -229 -172 -350t-498 -121q-47 0 -109.5 2t-95.5 4q-27 2 -61.5 4t-77.5 2h-244z M512 147q25 -14 95.5 -24t140.5 -10q156 0 247.5 80.5t91.5 234.5q0 156 -86 233.5t-247 77.5h-111q-92 0 -131 -6v-586zM514 881q33 -7 111 -7h88q150 0 224.5 77t74.5 225q0 131 -85 198.5t-235 67.5q-39 0 -94 -2t-82 -13z" />
<glyph unicode="C" horiz-adv-x="1431" d="M80 725q0 244 112.5 436.5t304 299t416.5 106.5q105 0 191 -16.5t178 -41.5l49 -12l-18 -323h-142l-61 178q-49 39 -107.5 56t-164.5 17q-137 0 -247 -77.5t-173.5 -220t-63.5 -330.5q0 -186 58.5 -345t172 -254.5t273.5 -95.5q221 0 291 105l65 170h119v-311 q-33 -2 -108 -27q-96 -31 -189.5 -49.5t-216.5 -18.5q-215 0 -383 94.5t-262 265.5t-94 394z" />
<glyph unicode="D" horiz-adv-x="1601" d="M100 0v106l160 33v1272l-156 19v122h287q82 0 201 9q27 2 78 4t94 2q375 0 565.5 -194.5t190.5 -553.5q0 -252 -100.5 -440.5t-277.5 -288.5t-405 -100q-49 0 -151 4q-88 6 -191 6h-295zM514 150q84 -33 207 -33q37 0 57 2q135 6 242.5 85t169 222t61.5 334 q0 334 -136 505t-388 171q-131 0 -213 -21v-1265z" />
<glyph unicode="E" horiz-adv-x="1355" d="M102 0v106l160 33v1272l-156 19v122h1074l28 -305h-143l-64 164l-485 16v-561l330 11l39 153h131v-450h-131l-39 153l-330 6v-612l537 23l110 202l135 -28l-47 -324h-1149z" />
<glyph unicode="F" horiz-adv-x="1267" d="M98 0v106l162 29v1276l-160 19v122h1100l23 -307l-127 -2l-56 160l-526 16v-569l385 10l49 148h117v-451h-131l-33 154l-387 6v-576l299 -22v-119h-715z" />
<glyph unicode="G" horiz-adv-x="1552" d="M78 733q0 250 106.5 439.5t290.5 292t414 102.5q143 0 267 -18.5t210 -41.5l-18 -311h-134l-65 172q-20 25 -102 46q-75 20 -186 20h-21q-141 0 -253 -81t-175.5 -224.5t-63.5 -327.5q0 -188 52.5 -348t162 -257.5t271.5 -97.5q94 0 179 28t122 85v354l-230 21v123h582 v-123l-113 -21v-493h-9q-30 0 -78 -10q-56 -13 -118 -27q-119 -31 -210 -47.5t-181 -16.5q-205 0 -364.5 98.5t-247.5 272.5t-88 391z" />
<glyph unicode="H" horiz-adv-x="1732" d="M92 0v106l168 33v1272l-168 19v122h590v-122l-166 -19v-573h703v575l-166 17v122h585v-122l-165 -19v-1272l176 -35v-104h-607v104l177 35v555h-703v-555l174 -33v-106h-598z" />
<glyph unicode="I" horiz-adv-x="794" d="M86 0v106l184 33v1272l-182 19v122h610v-122l-174 -19v-1272l187 -33v-106h-625z" />
<glyph unicode="J" horiz-adv-x="743" d="M-94 -311q240 84 313 256q29 84 38 186t9 272v1008l-160 19v122h570v-122l-154 -19v-862q0 -193 -6 -318t-27 -213q-33 -119 -116.5 -208t-192 -140t-217.5 -61z" />
<glyph unicode="K" horiz-adv-x="1460" d="M84 0v106l176 33v1272l-174 19v122h596v-122l-168 -19v-645l526 645l-155 19l-2 122h542v-122l-172 -19l-452 -516q49 -49 114.5 -147.5t155.5 -247.5q106 -172 167.5 -261t90.5 -96l150 -37v-106h-351q-31 2 -82 84t-137 248q-84 160 -141 257t-106 146l-148 -168v-428 l191 -33v-106h-621z" />
<glyph unicode="L" horiz-adv-x="1259" d="M102 0v106l158 31v1262l-154 16v137h588v-137l-176 -18l-2 -1266l469 29l139 239l113 -49l-68 -350h-1067z" />
<glyph unicode="M" horiz-adv-x="2007" d="M72 0v106l172 33l88 1258l-191 18v137h541l315 -981l41 -168l45 170l301 979h498v-137l-186 -18l108 -1258l166 -35v-104h-571v104l166 35l-74 873l-6 368l-39 -155l-397 -1241h-91l-364 1054q-49 141 -113 346l-6 -317l-43 -926l189 -35v-106h-549z" />
<glyph unicode="N" horiz-adv-x="1677" d="M94 0v106l166 35v1256l-160 18v137h412l643 -1075l121 -260v1180l-168 20v135h500v-135l-156 -18v-1399h-274l-617 993l-127 277l2 -1129l197 -35v-106h-539z" />
<glyph unicode="O" d="M82 733q0 246 99.5 436.5t264.5 290.5q176 106 379 107q201 0 352.5 -98.5t233.5 -270.5t82 -389q0 -252 -93 -441.5t-257 -293t-369 -103.5t-362.5 98.5t-243.5 271.5t-86 392zM362 754q0 -168 52.5 -318.5t151 -244t233.5 -93.5q211 0 312 181.5t101 506.5 q0 178 -50 328t-145 238t-222 88q-213 0 -323 -183.5t-110 -502.5z" />
<glyph unicode="P" horiz-adv-x="1320" d="M76 0v106l184 33v1258l-166 22v133h295q55 0 131 7q135 8 221 8q266 0 408.5 -104.5t142.5 -354.5q0 -156 -77.5 -271.5t-209 -177t-286.5 -61.5h-103q-76 0 -104 -4v-455l258 -33v-106h-694zM512 735q66 -10 195 -10q152 0 241.5 90t89.5 295q0 164 -95 248 q-91 80 -252 80h-15q-117 -8 -164 -19v-684z" />
<glyph unicode="Q" d="M84 719q0 264 105.5 462.5t285.5 297.5q162 88 352 88q201 0 352.5 -98.5t233.5 -270.5t82 -389q0 -215 -69.5 -387t-195.5 -282.5t-294 -149.5q70 -158 340 -158q104 0 182 39l12 -158q-31 -37 -98 -59.5t-149 -22.5q-338 0 -418 340h-21q-207 0 -366.5 97.5 t-246.5 268.5t-87 382zM362 754q0 -168 52.5 -318.5t151 -244t233.5 -93.5q209 0 311 181.5t102 506.5q0 170 -48 319.5t-142 242t-227 92.5q-213 0 -323 -183.5t-110 -502.5z" />
<glyph unicode="R" horiz-adv-x="1456" d="M78 0v106l182 33v1262l-160 18v133h250q43 0 82 2t72 5q127 8 201 8q260 0 406 -94.5t146 -315.5q0 -164 -88 -281.5t-245 -170.5q6 -2 32 -19q61 -39 113.5 -116.5t130.5 -215.5q57 -102 92 -154.5t66 -62.5l117 -31v-106h-338q-33 0 -70 62.5t-98 197.5 q-86 190 -155 297t-148 107l-152 -2v-523l203 -33v-106h-639zM514 793q47 -6 150 -7q168 0 254 81t86 261q0 152 -81 234q-77 78 -237 78h-16q-16 -2 -45 -2q-82 -4 -111 -15v-630z" />
<glyph unicode="S" horiz-adv-x="1259" d="M147 61v353h111l76 -213q51 -59 130 -82t181 -23q117 0 198 63.5t81 184.5q0 96 -81 171t-235 161q-154 82 -246 145.5t-151 148.5t-59 197q0 129 74.5 219.5t190 135.5t236.5 45q123 0 245 -22.5t177 -51.5v-299h-117l-81 199q-31 27 -93.5 42t-128.5 15 q-102 0 -184 -54.5t-82 -164.5q0 -109 89 -186.5t272 -174.5q131 -70 219 -131t145 -144t57 -189q0 -211 -154.5 -321t-389.5 -110q-135 0 -277.5 27t-202.5 59z" />
<glyph unicode="T" horiz-adv-x="1335" d="M37 1208l24 344h1242v-342l-105 -12l-61 201l-324 22v-1282l248 -33v-106h-739v106l239 31v1284l-332 -24l-69 -185z" />
<glyph unicode="U" horiz-adv-x="1589" d="M35 1430v122h588v-122l-177 -21v-768q0 -285 106.5 -412t307.5 -127q369 0 369 578l-2 729l-176 21v122h508v-122l-154 -21v-729q0 -352 -151.5 -530.5t-430.5 -178.5q-332 0 -482.5 168t-150.5 510l5 762z" />
<glyph unicode="V" horiz-adv-x="1449" d="M6 1430v122h586v-120l-174 -21l293 -924l67 -237l62 237l264 924l-162 19v122h498v-122l-119 -17l-475 -1431h-195l-518 1431z" />
<glyph unicode="W" horiz-adv-x="2164" d="M8 1430v122h570v-120l-164 -21l282 -987l52 -186l53 178l203 823l-52 172l-149 19v122h581v-120l-167 -21l245 -1001l45 -185l47 211l248 975l-166 19v122h521v-122l-148 -19l-422 -1429h-229l-264 938l-263 -938h-219l-475 1429z" />
<glyph unicode="X" horiz-adv-x="1466" d="M18 0v104l179 35l419 629l-421 643l-152 19v122h612v-120l-166 -21l277 -483l285 483l-148 19v122h531v-122l-160 -17l-420 -594l444 -678l166 -37v-104h-622v104l170 33l-307 506l-283 -504l188 -35v-104h-592z" />
<glyph unicode="Y" horiz-adv-x="1396" d="M12 1430v122h543v-120l-137 -19l293 -567l43 -101l41 105l258 559l-166 21v122h497v-122l-131 -31l-401 -795v-461l235 -37v-106h-706v106l219 35v453l-475 819z" />
<glyph unicode="Z" horiz-adv-x="1363" d="M78 106l821 1176l125 143l-662 -32l-106 -234l-123 23l35 370h1100l37 -110l-816 -1176l-112 -135l678 41l153 260l119 -31l-86 -401h-1130z" />
<glyph unicode="[" horiz-adv-x="948" d="M221 80v1415q0 107 21.5 163t72 79.5t140.5 23.5q63 0 117.5 -11t101.5 -25.5t63 -18.5l-2 -100h-297v-1653l297 -4l4 -101q-152 -53 -282 -53q-94 0 -144.5 25.5t-71 86t-20.5 173.5z" />
<glyph unicode="\" horiz-adv-x="819" d="M31 1599h209l553 -1961h-209z" />
<glyph unicode="]" horiz-adv-x="948" d="M209 -152l2 101l295 4v1653h-295l-2 100q16 4 72.5 21.5t108.5 25.5t102 8q90 0 140 -23.5t72.5 -81t22.5 -161.5v-1415q0 -113 -20.5 -173.5t-70.5 -86t-147 -25.5q-133 0 -280 53z" />
<glyph unicode="^" horiz-adv-x="1386" d="M180 563l389 969h250l387 -969h-227l-299 723l-299 -723h-201z" />
<glyph unicode="_" horiz-adv-x="1417" d="M-20 -193h1456v-180h-1456v180z" />
<glyph unicode="`" horiz-adv-x="884" d="M227 1638l187 168l301 -401l-66 -66q-98 23 -228 114t-194 185z" />
<glyph unicode="a" horiz-adv-x="1173" d="M100 287q0 135 100.5 223t250 128t301.5 40v61q0 139 -63.5 194.5t-188.5 55.5q-68 0 -154 -22.5t-149 -57.5l-47 113q70 57 199.5 89t238.5 32q198 0 307 -88t109 -295v-656h126v-81q-37 -23 -96 -36.5t-116 -13.5q-74 0 -107 30t-35 97q-113 -127 -317 -127 q-104 0 -186.5 40t-127.5 112t-45 162zM354 324q0 -199 211 -199q49 0 101.5 20.5t83.5 49.5l2 360q-154 0 -276 -55.5t-122 -175.5z" />
<glyph unicode="b" horiz-adv-x="1286" d="M29 1479v106l358 41l47 -16v-563q63 47 136 76.5t167 29.5q131 0 234.5 -60.5t163 -183.5t59.5 -305q0 -172 -76 -317.5t-210 -230.5t-302 -85q-131 0 -260 26t-164 54v1385zM436 174q17 -41 70 -61.5t129 -20.5q90 0 159.5 59.5t109.5 173t40 267.5q0 129 -42 221 t-111.5 139t-153.5 47q-63 0 -115.5 -19t-85.5 -48v-758z" />
<glyph unicode="c" horiz-adv-x="1075" d="M94 541q0 180 76 316t208 212t300 80q18 1 37 1q67 0 136 -12q89 -14 132 -38v-271h-127l-61 150q-51 39 -152 39q-133 0 -216 -110.5t-83 -299.5q0 -152 48 -258t128 -159.5t174 -53.5q78 0 160 17.5t123 44.5l43 -101q-66 -57 -177.5 -89t-240.5 -32q-158 0 -272.5 72 t-175 200t-60.5 292z" />
<glyph unicode="d" horiz-adv-x="1308" d="M90 541q0 176 81 315t219 218t304 79q92 0 162 -20v299l-217 43v108l416 43l53 -24v-1498h137v-88q-37 -20 -104.5 -34.5t-139.5 -14.5q-66 0 -94 24.5t-37 86.5q-45 -41 -134 -73t-195 -32q-125 0 -227.5 68t-163 196t-60.5 304zM346 588q0 -139 39 -245.5t107.5 -164 t154.5 -57.5q61 0 117.5 16.5t93.5 46.5v787q-72 63 -190 63q-82 0 -156 -51t-120 -151.5t-46 -243.5z" />
<glyph unicode="e" horiz-adv-x="1177" d="M90 547q0 174 74 312t205 216t299 78q196 0 305.5 -116.5t109.5 -327.5q0 -90 -14 -170h-723q4 -190 97.5 -297t265.5 -107q76 0 161.5 17.5t139.5 44.5l43 -99q-66 -57 -191 -91t-248 -34q-250 2 -387 156t-137 418zM348 674h479q2 23 2 67q0 152 -65 213 q-41 78 -143 78q-113 0 -186 -92t-87 -266z" />
<glyph unicode="f" horiz-adv-x="876" d="M76 958v89l207 65v90q0 137 66.5 253t169 183.5t204.5 67.5q59 0 105 -7t65 -18v-202q-27 14 -85 27.5t-114 13.5q-59 0 -93 -17.5t-50 -65.5t-16 -143v-176h301v-160h-301v-831l233 -23v-104h-672v104l187 25v829h-207z" />
<glyph unicode="g" horiz-adv-x="1228" d="M106 -233q0 84 50.5 156.5t119.5 113.5q-53 18 -77.5 46t-29.5 57.5t-5 76.5q0 43 37 113.5t90 118.5q-172 98 -172 305q0 133 69.5 223t182 135t245.5 45q191 0 306 -84q41 66 182 66h108v-185h-198q35 -70 35 -166q0 -129 -63.5 -221t-170 -138t-237.5 -46 q-106 0 -199 29q-12 -33 -12 -68v-39q0 -57 31.5 -86t101.5 -31q68 -4 250 -4q246 0 336 -84t90 -235q0 -123 -74 -212t-204 -136t-298 -47q-215 0 -354.5 69.5t-139.5 227.5zM336 -158q0 -123 86 -183t219 -60q156 0 236.5 49t80.5 155q0 72 -22.5 115t-79.5 63.5 t-164 20.5l-143 2q-106 0 -166 8q-47 -68 -47 -170zM367 807q0 -133 57 -215t180 -82q109 0 156 65.5t47 192.5q0 272 -229 272q-97 0 -154 -57t-57 -176z" />
<glyph unicode="h" horiz-adv-x="1413" d="M90 1475v108l361 43l51 -20l-2 -459l-11 -150q82 70 186.5 108t196.5 38q137 0 210 -57q74 -58 100 -170q25 -105 24 -276v-26v-487l144 -23v-104h-555v104l159 23v414q0 160 -12 246.5t-59 135t-146 48.5q-139 0 -235 -70v-774l127 -23v-104h-527v104l148 23v1305z" />
<glyph unicode="i" horiz-adv-x="704" d="M100 0v104l158 23v747l-135 99v74l321 96l60 -21v-995l155 -23v-104h-559zM186 1503q0 72 57.5 123t127.5 51q75 0 115 -40t40 -107q0 -76 -55 -125t-129 -49q-63 0 -109.5 41t-46.5 106z" />
<glyph unicode="j" horiz-adv-x="661" d="M-18 -346q12 -4 50 -7t62 -3q88 0 120 80.5t32 271.5v878l-129 101v69l319 99l58 -23v-1147q0 -229 -98.5 -363t-270.5 -134q-35 0 -83 7t-60 15v156zM168 1524q0 72 57.5 123t124.5 51q76 0 116 -40t40 -108q0 -76 -54.5 -125t-129.5 -49q-63 0 -108.5 41t-45.5 107z " />
<glyph unicode="k" horiz-adv-x="1304" d="M76 1468v109l377 49l49 -24v-897l-10 -148l401 420l-162 16v131h531v-131l-170 -16l-304 -303l394 -549l125 -21v-104h-527v104l121 25l-270 408l-137 -144l6 -153v-115l135 -21v-104h-539v104l154 25v1290z" />
<glyph unicode="l" horiz-adv-x="710" d="M94 0v104l152 23v1305l-150 43v108l355 43l47 -20v-1477l178 -25v-104h-582z" />
<glyph unicode="m" horiz-adv-x="2105" d="M115 967v86l305 90l55 -19v-145q68 66 178.5 114t206.5 50q17 1 34 1q94 0 156 -29q74 -34 111 -118q78 63 190.5 104.5t213.5 41.5q180 0 256.5 -116t76.5 -361v-539l158 -23v-104h-538v104l129 23v500q0 127 -16.5 198.5t-62.5 106.5t-134 35q-59 0 -121 -19.5 t-117 -54.5q18 -76 18 -209v-557l150 -23v-104h-549v104l148 25v510q0 119 -17.5 189.5t-62.5 104.5t-129 34q-57 0 -123 -20.5t-123 -63.5v-756l141 -23v-104h-526v104l131 23v756z" />
<glyph unicode="n" horiz-adv-x="1421" d="M115 967v86l305 90l55 -19v-145q78 70 198 117t224 47q176 0 246.5 -110.5t70.5 -352.5v-555l152 -21v-104h-553v104l150 23v514q0 121 -16.5 189.5t-61.5 101.5t-131 33q-53 0 -122 -20.5t-124 -61.5v-756l139 -23v-104h-524v104l131 21v758z" />
<glyph unicode="o" horiz-adv-x="1267" d="M92 563q0 180 76 313.5t204 205t285 71.5q254 0 387.5 -154.5t133.5 -412.5q0 -180 -72 -318.5t-197 -215.5t-282 -77q-264 0 -399.5 163t-135.5 425zM360 592q0 -201 70 -344.5t207 -145.5h5q146 0 207 119q62 121 62 346q0 207 -66.5 335t-207.5 128q-277 0 -277 -438z " />
<glyph unicode="p" horiz-adv-x="1333" d="M100 967v86l303 90l54 -19v-123q43 59 140 105.5t202 46.5q200 0 322 -141.5t122 -415.5q0 -170 -76.5 -312.5t-211 -224.5t-302.5 -82q-78 0 -172 23l8 -229v-154l201 -23v-106h-586v106l136 25v1264zM487 911l2 -723q20 -37 74.5 -58t126.5 -21q84 0 153.5 54 t109.5 158.5t40 249.5q0 209 -84 321t-215 112q-65 0 -118.5 -29t-88.5 -64z" />
<glyph unicode="q" horiz-adv-x="1273" d="M90 549q0 170 80 308t220 217t317 79q63 0 127.5 -13.5t103.5 -33.5l129 39l43 -23v-1501l133 -22v-111h-584v111l199 20v334l8 143q-49 -49 -131 -86t-184 -37q-119 0 -222.5 53.5t-171 182.5t-67.5 340zM346 565q0 -201 76 -315.5t215 -114.5q74 0 130 21.5t91 54.5 v747q-53 70 -176 70q-162 0 -249 -118.5t-87 -344.5z" />
<glyph unicode="r" horiz-adv-x="937" d="M109 0v104l147 23v756l-141 84v86l303 90l57 -19v-170q33 68 134.5 128.5t187.5 60.5q78 0 100 -8v-246q-74 37 -176 37q-127 0 -211 -56v-739l264 -27v-104h-665z" />
<glyph unicode="s" horiz-adv-x="1064" d="M141 838q0 102 65.5 173.5t167 106.5t208.5 35q90 0 182 -19.5t147 -46.5v-237h-116l-47 117q-71 75 -162 75h-2q-88 0 -142.5 -35.5t-54.5 -107.5q0 -53 36 -93t82 -64.5t161 -79.5q106 -49 168.5 -88t105.5 -99.5t43 -148.5q0 -172 -133 -261.5t-340 -89.5 q-94 0 -193.5 24t-173.5 64v242h115l51 -119q55 -49 102.5 -70.5t116.5 -21.5q100 0 157.5 42t57.5 124q-2 61 -56 100t-169 91l-51 22q-154 74 -240 158t-86 207z" />
<glyph unicode="t" horiz-adv-x="884" d="M82 973v88q96 25 128 38t56 52q31 53 84 235h123v-268h336v-145h-330v-457q0 -158 7.5 -231.5t31 -109.5t78.5 -36q43 0 105.5 14.5t86.5 30.5l41 -98q-51 -51 -152.5 -81t-193.5 -30q-131 0 -190.5 76t-59.5 240v682h-151z" />
<glyph unicode="u" horiz-adv-x="1306" d="M90 981v94l303 68l41 -19v-690q0 -160 40 -228.5t153 -68.5q66 0 136.5 29t102.5 59v701l-125 45v102l334 70l37 -17v-1022h119v-90q-31 -18 -100.5 -32.5t-120.5 -14.5q-55 0 -87 23.5t-32 70.5v68q-72 -70 -168 -111t-184 -41q-147 0 -222 54.5t-99.5 151t-27.5 253.5 v500z" />
<glyph unicode="v" horiz-adv-x="1222" d="M2 987v131h490v-131l-111 -24l199 -508l79 -252l74 246l174 516l-127 22v131h439v-131l-111 -26l-393 -977h-191l-424 983z" />
<glyph unicode="w" horiz-adv-x="1744" d="M2 987v131h483v-131l-123 -24l160 -553l49 -197l37 186l187 719h217l188 -717l47 -192l183 754l-125 24v131h438v-131l-131 -26l-283 -977h-233l-193 669l-37 172l-37 -172l-178 -669h-221l-321 981z" />
<glyph unicode="x" horiz-adv-x="1214" d="M4 0v104l154 25l325 412l-344 426l-133 20v131h547v-131l-121 -20l137 -205l74 -105l35 60l176 252l-137 18v131h489v-131l-166 -24l-311 -388l354 -448l129 -23v-104h-538v104l117 25l-138 193l-88 118l-33 -61l-172 -248l168 -27v-104h-524z" />
<glyph unicode="y" horiz-adv-x="1179" d="M2 987v131h508v-131l-133 -22l219 -623l49 -164l49 166l187 623l-150 20v131h459v-131l-105 -18q-111 -322 -221 -617t-151 -397q-74 -184 -143.5 -286.5t-161.5 -141.5q-63 -51 -152 -51q-31 0 -64.5 4t-44.5 10v201q44 -13 92 -13h13q90 0 168 76t127 248h-49l-398 963 z" />
<glyph unicode="z" horiz-adv-x="1103" d="M76 88l86 127l500 694l83 95l-434 -17l-63 -190h-125v321h887l34 -96l-544 -766l-109 -137l467 26l64 168h131l-15 -313h-923z" />
<glyph unicode="{" horiz-adv-x="1069" d="M80 700v160q223 41 223 119v532q0 143 49 197.5t174 54.5q59 0 104.5 -8t129.5 -31l59 -16v-100h-297v-637q0 -66 -43 -100.5t-99 -60.5t-75 -34q109 -47 163 -90t54 -111v-634h297v-103q-106 -31 -161.5 -42t-125.5 -11q-129 0 -179 56.5t-50 201.5v530q0 41 -65.5 75 t-157.5 52z" />
<glyph unicode="|" horiz-adv-x="948" d="M360 -186v1966h238v-1966h-238z" />
<glyph unicode="}" horiz-adv-x="1019" d="M197 -162l2 103h297v634q0 72 53 114t162 87q-84 37 -124 59.5t-65.5 54.5t-25.5 81v637h-297l-2 100q18 4 81.5 21.5t115.5 25.5t98 8q125 0 174 -55t49 -197v-532q0 -76 223 -119v-160q-92 -18 -157.5 -52t-65.5 -75v-530q0 -147 -51.5 -202.5t-178.5 -55.5 q-66 0 -122 11t-166 42z" />
<glyph unicode="~" horiz-adv-x="1277" d="M147 862q35 82 138.5 146.5t206.5 64.5q57 0 100 -22.5t96 -65.5q45 -35 77 -52.5t69 -17.5q100 0 213 101l83 -103q-37 -82 -138 -146.5t-204 -64.5q-59 0 -100 21.5t-92 62.5q-41 37 -76 55.5t-78 18.5q-61 0 -109 -26.5t-104 -73.5z" />
<glyph horiz-adv-x="0" />
<glyph unicode="&#xa1;" horiz-adv-x="747" d="M197 -422l102 1309h141l95 -1309h-338zM211 1262q0 72 57.5 125t124.5 53q78 0 118 -41t40 -109q0 -76 -55.5 -125t-126.5 -49q-66 0 -112 40t-46 106z" />
<glyph unicode="&#xa2;" horiz-adv-x="1150" d="M115 539q0 164 63.5 294t177 209.5t256.5 100.5l15 219h149l-12 -213q72 -4 138.5 -16.5t101.5 -32.5v-271h-127l-62 150q-51 39 -151 39q-135 0 -217 -109.5t-82 -298.5q0 -152 48 -259t128 -160.5t174 -53.5q78 0 159.5 17.5t124.5 44.5l41 -101q-59 -51 -159.5 -82.5 t-216.5 -38.5l-11 -192h-149l10 203q-190 32 -294.5 181.5t-104.5 369.5z" />
<glyph unicode="&#xa3;" horiz-adv-x="1478" d="M57 66q0 43 41 80.5t113 60t156 20.5q29 68 28 238v248h-172v168h172v90q0 156 65.5 293t184.5 220t270 83q95 0 166.5 -19.5t128.5 -68.5l-116 -222q-31 57 -108 113.5t-169 56.5q-86 0 -129 -105t-43 -333v-108h299v-168h-297v-37q0 -178 -24.5 -279.5t-90.5 -201.5 q35 -2 83.5 -18.5t58.5 -20.5q43 -16 90 -30.5t90 -21.5q23 -4 64 -4q106 0 164.5 55.5t58.5 133.5q0 41 -22.5 81t-57.5 62l110 211q88 -27 142.5 -110.5t54.5 -186.5q0 -96 -44 -184t-144.5 -144.5t-259.5 -56.5q-109 0 -190 24.5t-179 67.5q-55 25 -83 34t-52 7 q-96 -123 -234 -125q-49 0 -87 21.5t-38 75.5z" />
<glyph unicode="&#xa4;" horiz-adv-x="1456" d="M199 272l190 193q-70 102 -70 225q0 121 70 223l-188 193l108 113l197 -195q96 59 213 59q129 0 223 -69l205 200l110 -114l-202 -201q61 -94 61 -209q0 -117 -65 -219l192 -192l-113 -113l-192 192q-102 -66 -219 -65q-115 0 -213 63l-195 -194zM502 690 q0 -92 64.5 -159.5t152.5 -67.5t151.5 67.5t63.5 159.5t-63.5 158.5t-151.5 66.5t-152.5 -67.5t-64.5 -157.5z" />
<glyph unicode="&#xa5;" horiz-adv-x="1449" d="M31 1430v122h549v-120l-134 -19l242 -424l51 -123h23l61 131q47 86 129 244q31 53 90 170l-149 19v122h493v-122l-139 -33l-321 -531h313v-143h-391l-2 -45v-170h393v-141h-393v-224l221 -37v-106h-686v106l209 35v226h-402v141h402v154l-12 61h-390v143h314l-348 545z " />
<glyph unicode="&#xa6;" horiz-adv-x="948" d="M360 -186v886h238v-886h-238zM360 895v885h238v-885h-238z" />
<glyph unicode="&#xa7;" horiz-adv-x="1337" d="M168 811q0 80 38 168t91 139q-109 98 -109 238q0 131 77 225t196 143.5t239 49.5q121 0 225.5 -21.5t161.5 -52.5v-289h-106l-94 184q-20 27 -76.5 42.5t-128.5 15.5q-57 0 -115.5 -28t-98.5 -84t-40 -136q0 -66 43 -116t107.5 -87t173.5 -86q137 -63 219 -112.5 t140 -128t58 -189.5q0 -86 -28.5 -174t-77.5 -143q106 -96 106 -228q0 -211 -144 -308t-384 -97q-133 0 -273.5 24.5t-193.5 55.5v352h107l79 -199q49 -63 122 -84.5t171 -21.5q111 0 192 50t81 155q0 72 -45 127t-114 95t-183 95q-135 66 -218 116t-140.5 127t-57.5 183z M393 862q0 -68 46 -120t111.5 -89t180.5 -90q106 -47 187 -92q31 72 30 139q0 70 -43 124t-109.5 95t-183.5 99q-109 53 -182 94q-37 -82 -37 -160z" />
<glyph unicode="&#xa8;" horiz-adv-x="1064" d="M131 1495q0 66 52.5 110t117.5 44q70 0 109 -35t39 -96q0 -68 -53.5 -109t-119.5 -41q-61 0 -103 35t-42 92zM618 1497q0 63 53.5 107.5t114.5 44.5q72 0 110 -35t38 -94q0 -70 -51.5 -111t-120.5 -41q-62 0 -103 35t-41 94z" />
<glyph unicode="&#xa9;" horiz-adv-x="2066" d="M180 1069q0 231 115 427t311.5 310.5t427.5 114.5q232 0 427.5 -114.5t311 -310.5t115.5 -427q0 -227 -116.5 -422.5t-312 -311.5t-425.5 -116q-236 0 -431 113.5t-309 309.5t-114 427zM330 1069q0 -193 95 -356.5t256 -261t351 -97.5t352 97.5t256.5 261.5t94.5 356 q0 195 -94.5 359.5t-256 261t-352.5 96.5q-192 0 -353 -97.5t-255 -261t-94 -358.5zM582 1061q0 139 68.5 256t180 186.5t234.5 75.5q88 4 172 -7t125 -48v-246h-143l-56 137q-23 14 -51.5 20.5t-87.5 6.5q-98 0 -150.5 -89t-52.5 -243q0 -102 39 -183t106.5 -126t153.5 -45 q63 0 126 14t95 37l33 -92q-45 -55 -140 -93t-196 -38q-217 0 -336.5 130t-119.5 347z" />
<glyph unicode="&#xaa;" horiz-adv-x="1036" d="M111 979q0 158 152.5 223.5t381.5 65.5v20q0 102 -49 133t-152 31q-70 0 -136 -16.5t-103 -42.5l-43 110q45 37 153.5 63.5t204.5 26.5q174 0 261 -61.5t87 -235.5l-2 -438h86v-88q-41 -14 -101 -26.5t-97 -12.5q-53 0 -75 21.5t-26 76.5q-43 -39 -114.5 -66.5 t-176.5 -27.5q-59 0 -117.5 29t-96 84t-37.5 131zM336 1010q0 -66 37 -103t92 -37q43 0 94 13.5t82 36.5v245q-305 -8 -305 -155z" />
<glyph unicode="&#xab;" horiz-adv-x="1988" d="M240 500v217l680 383l63 -105l-491 -381l491 -364l-63 -113zM1006 500v217l680 383l63 -105l-489 -381l489 -364l-63 -113z" />
<glyph unicode="&#xac;" horiz-adv-x="1290" d="M180 743v160h930v-551h-219v391h-711z" />
<glyph unicode="&#xad;" horiz-adv-x="1261" d="M180 725v180h910v-180h-910zM180 725z" />
<glyph unicode="&#xae;" horiz-adv-x="2066" d="M180 1069q0 231 115 427t311.5 310.5t427.5 114.5q232 0 427.5 -114.5t311 -310.5t115.5 -427q0 -227 -116.5 -422.5t-312 -311.5t-425.5 -116q-236 0 -431 113.5t-309 309.5t-114 427zM330 1069q0 -193 95 -356.5t256 -261t351 -97.5q193 0 353.5 96.5t255 261.5 t94.5 357q0 195 -94.5 359.5t-256 261t-352.5 96.5q-192 0 -353 -97.5t-255 -261t-94 -358.5zM616 600v100l89 31v696l-89 23v113h183q29 -2 116 2l154 2q363 0 369 -242q0 -113 -61.5 -194.5t-196.5 -100.5q63 -23 101 -69t75 -117q37 -70 67.5 -102.5t81.5 -32.5v-107 h-211q-47 0 -73.5 35t-59.5 108q-29 70 -55.5 113t-69.5 70q-45 63 -102 71v-278l82 -21v-100h-400zM934 1120q35 -8 110 -8q72 0 117 49t45 119q0 88 -48 126t-144 38h-25q-31 0 -55 -8v-316z" />
<glyph unicode="&#xaf;" horiz-adv-x="952" d="M217 1407v182h543v-182h-543z" />
<glyph unicode="&#xb0;" horiz-adv-x="759" d="M47 1266q0 90 45 164.5t122 118.5t165 44q90 0 166 -45t121 -120.5t45 -161.5q0 -88 -45 -164t-121 -121t-166 -45q-88 0 -165 45t-122 121t-45 164zM193 1266q0 -80 53 -134.5t133 -54.5t132 53.5t52 135.5q0 80 -53 135t-131 55q-82 0 -134 -54t-52 -136z" />
<glyph unicode="&#xb1;" horiz-adv-x="1290" d="M178 717v192h215l162 -12l-6 176v221h194v-221l-10 -176l144 12h237v-192h-237l-144 8l10 -174v-221h-194v221l6 174l-162 -8h-215zM188 18v179h910v-179h-910z" />
<glyph unicode="&#xb2;" horiz-adv-x="1249" d="M143 852q226 119 420.5 266.5t194.5 265.5q0 88 -57.5 130t-147.5 42q-84 0 -173 -45t-153 -118l-77 100q57 92 188 164t268 72q215 0 311.5 -83t96.5 -198q0 -117 -79 -216t-204 -183t-334 -199l504 57l111 142l125 -43l-60 -285h-884z" />
<glyph unicode="&#xb3;" horiz-adv-x="1142" d="M178 1585q72 57 195 95t223 38q98 0 175 -32.5t121 -89t44 -123.5q0 -90 -53.5 -155t-161.5 -108q96 0 160.5 -41t95.5 -101t31 -118q0 -100 -59.5 -178t-168 -121t-250.5 -43q-78 0 -163.5 16.5t-149.5 43.5v123q47 -17 123 -30t125 -13q137 4 218 58t81 146 q0 76 -51 118t-133 50l-72 -14l-137 -31l2 137q158 33 240.5 94.5t82.5 155.5q0 59 -51 85t-123 26q-68 0 -149.5 -26.5t-136.5 -63.5z" />
<glyph unicode="&#xb4;" horiz-adv-x="884" d="M270 1405l301 401l187 -168q-57 -90 -179 -172t-243 -129z" />
<glyph unicode="&#xb6;" horiz-adv-x="1439" d="M135 1120q0 217 135.5 335t397.5 118q74 0 303 -12q168 -8 207 -9h186v-125l-180 -43v-1241l166 -37v-106h-371l-2 1397h-186v-1397h-412v106l203 37v525q-217 0 -332 113.5t-115 338.5z" />
<glyph unicode="&#xb7;" horiz-adv-x="733" d="M195 831q0 72 57 125.5t125 53.5q76 0 117 -41t41 -111q0 -76 -55.5 -124t-127.5 -48q-66 0 -111.5 40t-45.5 105z" />
<glyph unicode="&#xb8;" horiz-adv-x="634" d="M109 -504l2 119q16 -6 53 -10t61 -4q55 0 85 18.5t30 71.5q0 39 -32 61.5t-91 22.5q-18 0 -31.5 -2t-19.5 -2q0 45 13.5 114.5t29.5 118.5h139q-4 -19 -4 -74q0 -41 2 -57q115 -2 177.5 -59.5t62.5 -130.5q0 -106 -84 -158.5t-219 -52.5q-66 0 -113 11t-61 13z" />
<glyph unicode="&#xb9;" horiz-adv-x="1099" d="M193 1532q92 25 260 93.5t204 98.5l64 -16l-2 -854l250 -31v-104h-760v104l266 33v600q-143 -20 -256 -45z" />
<glyph unicode="&#xba;" horiz-adv-x="1058" d="M102 1157q0 143 62.5 241.5t164 146.5t216.5 48q192 0 302.5 -115.5t110.5 -316.5q0 -139 -63.5 -236.5t-164.5 -144.5t-212 -47q-186 0 -301 111.5t-115 312.5zM344 1174q0 -139 51 -232.5t129 -93.5q104 0 149.5 66.5t45.5 232.5q0 143 -49 238.5t-135 95.5 q-95 -2 -143 -81t-48 -226z" />
<glyph unicode="&#xbb;" horiz-adv-x="1988" d="M238 240l489 381l-489 366l63 113l680 -363v-217l-680 -383zM1004 240l489 381l-489 366l63 113l680 -363v-217l-680 -383z" />
<glyph unicode="&#xbc;" horiz-adv-x="2662" d="M248 1532q92 25 260 93.5t205 98.5l63 -16l-2 -854l250 -31v-104h-760v104l266 33v600q-137 -18 -256 -45zM813 -287l784 2167l162 -49l-786 -2173zM1432 274l555 818l88 2l120 -123l-491 -586l-76 -98l373 35l6 231l205 22v-233l246 20l2 -202h-248v-336h-221l6 336 h-512z" />
<glyph unicode="&#xbd;" horiz-adv-x="2662" d="M248 1532q92 25 260 93.5t205 98.5l63 -16l-2 -854l250 -31v-104h-760v104l266 33v600q-137 -18 -256 -45zM813 -295l784 2175l162 -47l-786 -2175zM1501 129q232 127 422.5 270.5t190.5 262.5q0 88 -57.5 131t-145.5 43q-84 0 -173 -45.5t-153 -118.5l-78 98 q57 92 187.5 165t269.5 73q213 0 310.5 -84t97.5 -199q0 -117 -79 -216t-205 -183t-333 -197l502 53l113 144l124 -43l-59 -285h-885z" />
<glyph unicode="&#xbe;" horiz-adv-x="2721" d="M227 1585q72 57 195 95t223 38q98 0 175 -32.5t121 -89t44 -123.5q0 -90 -53 -155t-162 -108q96 0 160.5 -41t95.5 -101t31 -118q0 -100 -59.5 -178t-168 -121t-249.5 -43q-78 0 -164 16.5t-150 43.5v123q47 -17 123 -30t125 -13q137 4 218 58t81 146q0 76 -51 118 t-133 50l-72 -14l-137 -31l2 137q158 33 240.5 94.5t82.5 155.5q0 59 -51 85t-123 26q-68 0 -149.5 -26.5t-136.5 -63.5zM811 -295l784 2175l162 -47l-786 -2175zM1432 274l555 818l88 2l120 -123l-491 -586l-76 -98l373 35l6 231l205 22v-233l246 20l2 -202h-248v-336h-221 l6 336h-512z" />
<glyph unicode="&#xbf;" horiz-adv-x="1030" d="M100 154q0 66 8.5 102.5t35 65t83.5 59.5q31 16 58.5 29.5t50.5 25.5q111 53 160 87t49 83q0 55 -21.5 117.5t-45 119t-32.5 72.5h160q61 -51 118.5 -158.5t57.5 -176.5q-2 -70 -84 -118t-231 -104q-16 -6 -55 -20t-64 -27q-43 -20 -59.5 -34.5t-16.5 -34.5 q-4 -113 59.5 -215.5t176.5 -166t252 -63.5q115 0 166 27l6 -197q-18 -23 -83 -35t-130 -12q-203 2 -342 84t-208 212t-69 278zM309 1268q0 72 57.5 125t125.5 53q75 0 116 -42t41 -110q0 -76 -56 -125t-128 -49q-63 0 -109.5 41t-46.5 107z" />
<glyph unicode="&#xc0;" horiz-adv-x="1529" d="M2 0v106l139 33l510 1413h230l489 -1413l158 -35v-104h-586v104l154 35l-82 260h-578l-86 -258l160 -35v-106h-508zM365 1755l165 166l330 -246l-72 -71q-98 10 -218.5 53t-204.5 98zM481 543h486l-150 473l-88 293z" />
<glyph unicode="&#xc1;" horiz-adv-x="1529" d="M2 0v106l139 33l510 1413h230l489 -1413l158 -35v-104h-586v104l154 35l-82 260h-578l-86 -258l160 -35v-106h-508zM481 543h486l-150 473l-88 293zM672 1675l338 246l164 -166q-82 -55 -206 -97t-227 -54z" />
<glyph unicode="&#xc2;" horiz-adv-x="1529" d="M2 0v106l139 33l510 1413h230l489 -1413l158 -35v-104h-586v104l154 35l-82 260h-578l-86 -258l160 -35v-106h-508zM403 1665l261 256h206l260 -254l-96 -57l-266 151l-274 -151zM481 543h486l-150 473l-88 293z" />
<glyph unicode="&#xc3;" horiz-adv-x="1529" d="M2 0v106l139 33l510 1413h230l489 -1413l158 -35v-104h-586v104l154 35l-82 260h-578l-86 -258l160 -35v-106h-508zM358 1735q35 73 122 129.5t167 56.5q47 0 81 -17.5t77 -48.5q35 -27 60.5 -39t54.5 -12q98 0 176 78l65 -84q-35 -74 -120 -126t-164 -52q-47 0 -83 17.5 t-79 50.5q-35 27 -59.5 40t-53.5 13q-45 0 -94 -23.5t-84 -56.5zM481 543h486l-150 473l-88 293z" />
<glyph unicode="&#xc4;" horiz-adv-x="1529" d="M2 0v106l139 33l510 1413h230l489 -1413l158 -35v-104h-586v104l154 35l-82 260h-578l-86 -258l160 -35v-106h-508zM360 1767q0 63 53.5 109.5t116.5 46.5q68 0 108 -36t40 -97q0 -66 -52.5 -109t-121.5 -43q-59 0 -101.5 35t-42.5 94zM481 543h486l-150 473l-88 293z M854 1767q0 66 53.5 111t118.5 45q70 0 107.5 -36t37.5 -97q0 -66 -50 -109t-120 -43q-61 0 -104 36t-43 93z" />
<glyph unicode="&#xc5;" horiz-adv-x="1529" d="M2 0v106l139 33l484 1336q-57 31 -92 84t-35 120q0 106 76.5 174t191.5 68q111 0 189.5 -68.5t78.5 -173.5q0 -68 -34.5 -121t-92.5 -83l463 -1336l158 -35v-104h-586v104l154 35l-82 260h-578l-86 -258l160 -35v-106h-508zM481 543h486l-150 473l-88 293zM637 1677 q0 -53 37 -88t92 -35q53 0 91 35t38 88q0 51 -37 88t-92 37t-92 -35.5t-37 -89.5z" />
<glyph unicode="&#xc6;" horiz-adv-x="1939" d="M2 0v106l135 31l572 1415h1005l31 -305l-133 -2l-53 162l-543 16l164 -544l336 6l32 153h117v-446h-117l-32 143l-295 8l186 -618l264 20l105 201l120 -41l-47 -305h-880v106l159 33l-84 275h-606l-102 -275l170 -33v-106h-504zM496 559h505l-180 598l-35 178z" />
<glyph unicode="&#xc7;" horiz-adv-x="1429" d="M78 725q0 246 113.5 437.5t304 298t413.5 106.5q105 0 192 -16.5t179 -41.5l49 -12l-18 -323h-142l-61 178q-49 39 -107.5 56t-164.5 17q-137 0 -247 -78.5t-173.5 -221t-63.5 -328.5t58.5 -345t172 -254.5t273.5 -95.5q217 0 291 105l65 170h119v-311q-31 -2 -110 -27 q-94 -29 -167 -45.5t-165 -18.5q-2 -37 2 -102q115 -2 177 -59.5t62 -130.5q0 -106 -83.5 -158.5t-221.5 -52.5q-63 0 -110 11t-62 13v119q16 -6 54 -10t63 -4q55 0 85 18.5t30 71.5q0 39 -32 61.5t-91 22.5q-18 0 -32.5 -2t-20.5 -2q4 96 34 204q-199 14 -349 112.5 t-233 263.5t-83 374z" />
<glyph unicode="&#xc8;" horiz-adv-x="1355" d="M102 0v106l160 33v1272l-156 19v122h1074l28 -305h-143l-64 164l-485 16v-561l330 11l39 153h131v-450h-131l-39 153l-330 6v-612l537 23l110 202l135 -28l-47 -324h-1149zM332 1755l164 166l329 -246l-71 -71q-86 8 -214 52t-208 99z" />
<glyph unicode="&#xc9;" horiz-adv-x="1355" d="M102 0v106l160 33v1272l-156 19v122h1074l28 -305h-143l-64 164l-485 16v-561l330 11l39 153h131v-450h-131l-39 153l-330 6v-612l537 23l110 202l135 -28l-47 -324h-1149zM639 1675l336 246l164 -166q-80 -55 -205 -97t-225 -54z" />
<glyph unicode="&#xca;" horiz-adv-x="1355" d="M102 0v106l160 33v1272l-156 19v122h1074l28 -305h-143l-64 164l-485 16v-561l330 11l39 153h131v-450h-131l-39 153l-330 6v-612l537 23l110 202l135 -28l-47 -324h-1149zM369 1665l260 256h207l260 -254l-97 -57l-266 151l-274 -151z" />
<glyph unicode="&#xcb;" horiz-adv-x="1355" d="M102 0v106l160 33v1272l-156 19v122h1074l28 -305h-143l-64 164l-485 16v-561l330 11l39 153h131v-450h-131l-39 153l-330 6v-612l537 23l110 202l135 -28l-47 -324h-1149zM326 1767q0 63 53 109.5t117 46.5q69 0 109 -37t40 -96q0 -66 -53 -109t-123 -43q-57 0 -100 35 t-43 94zM819 1767q0 66 53.5 111t118.5 45q70 0 108 -36t38 -97q0 -66 -50.5 -109t-119.5 -43q-61 0 -104.5 36t-43.5 93z" />
<glyph unicode="&#xcc;" horiz-adv-x="794" d="M-4 1755l164 166l329 -246l-69 -71q-86 8 -215 52t-209 99zM86 0v106l184 33v1272l-182 19v122h610v-122l-174 -19v-1272l187 -33v-106h-625z" />
<glyph unicode="&#xcd;" horiz-adv-x="794" d="M86 0v106l184 33v1272l-182 19v122h610v-122l-174 -19v-1272l187 -33v-106h-625zM303 1675l336 246l164 -166q-80 -55 -205 -97t-225 -54z" />
<glyph unicode="&#xce;" horiz-adv-x="794" d="M33 1665l260 256h207l260 -254l-96 -57l-267 151l-274 -151zM86 0v106l184 33v1272l-182 19v122h610v-122l-174 -19v-1272l187 -33v-106h-625z" />
<glyph unicode="&#xcf;" horiz-adv-x="794" d="M-10 1767q0 63 53 109.5t117 46.5q69 0 109 -36t40 -97q0 -66 -53 -109t-121 -43q-59 0 -102 35t-43 94zM86 0v106l184 33v1272l-182 19v122h610v-122l-174 -19v-1272l187 -33v-106h-625zM483 1767q0 66 53.5 111t118.5 45q70 0 108 -36t38 -97q0 -66 -50.5 -109 t-119.5 -43q-61 0 -104.5 36t-43.5 93z" />
<glyph unicode="&#xd0;" horiz-adv-x="1599" d="M82 717v168h178v526l-154 19v122h285q84 0 203 9q27 2 78 4t92 2q377 0 567.5 -194.5t190.5 -553.5q0 -252 -100.5 -440.5t-277.5 -288.5t-405 -100q-47 0 -153 4q-86 6 -189 6h-295v106l158 33v578h-178zM514 150q84 -33 207 -33q37 0 57 2q135 6 242.5 85t169 222 t61.5 334q0 334 -137 505t-391 171q-129 0 -209 -21v-530h262v-168h-262v-567z" />
<glyph unicode="&#xd1;" horiz-adv-x="1677" d="M94 0v106l166 35v1256l-160 18v137h412l643 -1075l121 -260v1180l-168 20v135h500v-135l-156 -18v-1399h-274l-617 993l-127 277l2 -1129l197 -35v-106h-539zM94 0zM440 1735q35 73 122 129.5t167 56.5q45 0 79.5 -16.5t79.5 -49.5q35 -27 58.5 -39t52.5 -12 q100 0 178 78l66 -84q-37 -74 -121 -126t-164 -52q-47 0 -83 17.5t-79 50.5q-35 27 -59.5 40t-52.5 13q-45 0 -94.5 -23.5t-86.5 -56.5z" />
<glyph unicode="&#xd2;" d="M82 0zM82 733q0 246 99.5 436.5t264.5 290.5q176 106 379 107q201 0 352.5 -98.5t233.5 -270.5t82 -389q0 -252 -93 -441.5t-257 -293t-369 -103.5t-362.5 98.5t-243.5 271.5t-86 392zM362 754q0 -168 52.5 -318.5t151 -244t233.5 -93.5q211 0 312 181.5t101 506.5 q0 178 -50 328t-145 238t-222 88q-213 0 -323 -183.5t-110 -502.5zM399 1755l164 166l332 -246l-72 -71q-86 8 -215 52t-209 99z" />
<glyph unicode="&#xd3;" d="M82 733q0 248 98.5 437.5t268 293t374.5 103.5q201 0 353.5 -98.5t234.5 -270.5t82 -389q0 -250 -93 -440.5t-258 -294t-372 -103.5q-205 0 -360.5 98.5t-241.5 271.5t-86 392zM362 754q0 -168 52.5 -318.5t151 -244t233.5 -93.5q211 0 312 181.5t101 506.5 q0 178 -50 328t-145 238t-222 88q-213 0 -323 -183.5t-110 -502.5zM705 1675l337 246l164 -166q-82 -55 -205.5 -97t-226.5 -54z" />
<glyph unicode="&#xd4;" d="M82 733q0 248 98.5 437.5t268 293t374.5 103.5q201 0 353.5 -98.5t234.5 -270.5t82 -389q0 -250 -93 -440.5t-258 -294t-372 -103.5q-205 0 -360.5 98.5t-241.5 271.5t-86 392zM362 754q0 -168 52.5 -318.5t151 -244t233.5 -93.5q211 0 312 181.5t101 506.5 q0 178 -50 328t-145 238t-222 88q-213 0 -323 -183.5t-110 -502.5zM436 1665l260 256h207l260 -254l-96 -57l-266 151l-275 -151z" />
<glyph unicode="&#xd5;" d="M82 0zM82 733q0 246 99.5 436.5t264.5 290.5q176 106 379 107q201 0 352.5 -98.5t233.5 -270.5t82 -389q0 -252 -93 -441.5t-257 -293t-369 -103.5t-362.5 98.5t-243.5 271.5t-86 392zM362 754q0 -168 52.5 -318.5t151 -244t233.5 -93.5q211 0 312 181.5t101 506.5 q0 178 -50 328t-145 238t-222 88q-213 0 -323 -183.5t-110 -502.5zM391 1735q35 73 122 129.5t167 56.5q45 0 79.5 -16.5t79.5 -49.5q35 -27 58.5 -39t52.5 -12q100 0 178 78l66 -84q-37 -74 -121 -126t-164 -52q-47 0 -83 17.5t-79 50.5q-35 27 -59.5 40t-52.5 13 q-45 0 -94.5 -23.5t-86.5 -56.5z" />
<glyph unicode="&#xd6;" d="M82 0zM82 733q0 246 99.5 436.5t264.5 290.5q176 106 379 107q201 0 352.5 -98.5t233.5 -270.5t82 -389q0 -252 -93 -441.5t-257 -293t-369 -103.5t-362.5 98.5t-243.5 271.5t-86 392zM362 754q0 -168 52.5 -318.5t151 -244t233.5 -93.5q211 0 312 181.5t101 506.5 q0 178 -50 328t-145 238t-222 88q-213 0 -323 -183.5t-110 -502.5zM372 1767q0 66 53.5 111t116.5 45q70 0 110 -37t40 -96q0 -66 -53.5 -109t-120.5 -43q-59 0 -102.5 35t-43.5 94zM907 1767q0 66 53.5 111t116.5 45q70 0 107.5 -36t37.5 -97q0 -66 -49 -109t-121 -43 q-61 0 -103 36t-42 93z" />
<glyph unicode="&#xd7;" horiz-adv-x="1304" d="M180 475l348 332l-348 334l139 145l332 -356l332 356l141 -145l-348 -334l348 -332l-141 -147l-332 356l-332 -356z" />
<glyph unicode="&#xd8;" d="M82 727q0 250 98.5 440.5t268 295t378.5 104.5q98 0 205 -31l55 158l101 -39l-58 -160q172 -90 267.5 -272.5t95.5 -413.5q0 -248 -92 -437.5t-254 -294t-365 -106.5q-90 0 -186 21l-76 -197l-100 37l72 195q-195 86 -302.5 271t-107.5 429zM362 754q0 -164 52.5 -314.5 t146.5 -238.5l410 1185q-84 54 -176 54q-213 0 -323 -183.5t-110 -502.5zM653 131q64 -33 146 -33q209 0 311 181.5t102 506.5q0 152 -39.5 289t-115.5 230z" />
<glyph unicode="&#xd9;" horiz-adv-x="1589" d="M35 0zM35 1430v122h588v-122l-177 -21v-768q0 -285 106.5 -412t307.5 -127q369 0 369 578l-2 729l-176 21v122h508v-122l-154 -21v-729q0 -352 -151.5 -530.5t-430.5 -178.5q-332 0 -482.5 168t-150.5 510l5 762zM438 1755l164 166l332 -246l-72 -71q-86 8 -215 52 t-209 99z" />
<glyph unicode="&#xda;" horiz-adv-x="1589" d="M35 0zM35 1430v122h588v-122l-177 -21v-768q0 -285 106.5 -412t307.5 -127q369 0 369 578l-2 729l-176 21v122h508v-122l-154 -21v-729q0 -352 -151.5 -530.5t-430.5 -178.5q-332 0 -482.5 168t-150.5 510l5 762zM744 1675l336 246l166 -166q-82 -55 -207 -97t-226 -54z " />
<glyph unicode="&#xdb;" horiz-adv-x="1585" d="M35 1430v122h588v-122l-177 -21v-768q0 -285 106.5 -412t307.5 -127q369 0 369 578l-2 729l-176 21v122h508v-122l-154 -21v-729q0 -352 -151.5 -530.5t-430.5 -178.5q-332 0 -482.5 168t-150.5 510l5 762zM475 1665l262 256h205l262 -254l-98 -57l-266 151l-273 -151z " />
<glyph unicode="&#xdc;" horiz-adv-x="1589" d="M35 0zM35 1430v122h588v-122l-177 -21v-768q0 -285 106.5 -412t307.5 -127q369 0 369 578l-2 729l-176 21v122h508v-122l-154 -21v-729q0 -352 -151.5 -530.5t-430.5 -178.5q-332 0 -482.5 168t-150.5 510l5 762zM411 1767q0 66 53.5 111t116.5 45q70 0 110 -37t40 -96 q0 -66 -53.5 -109t-120.5 -43q-59 0 -102.5 35t-43.5 94zM946 1767q0 66 53.5 111t116.5 45q70 0 107.5 -36t37.5 -97q0 -66 -49 -109t-121 -43q-61 0 -103 36t-42 93z" />
<glyph unicode="&#xdd;" horiz-adv-x="1396" d="M12 0zM12 1430v122h543v-120l-137 -19l293 -567l43 -101l41 105l258 559l-166 21v122h497v-122l-131 -31l-401 -795v-461l235 -37v-106h-706v106l219 35v453l-475 819zM633 1675l336 246l166 -166q-82 -55 -207 -97t-226 -54z" />
<glyph unicode="&#xde;" horiz-adv-x="1325" d="M72 1430v122h624v-122l-182 -19v-186q29 4 43 4q131 16 203 16q250 0 392 -105.5t142 -318.5q0 -158 -76.5 -270.5t-205.5 -170.5t-285 -58q-127 0 -213 4v-187l262 -33v-106h-696v106l180 33v1272zM514 455q57 -11 180 -11q150 0 245 88.5t95 278.5q0 143 -90 222 t-254 79q-57 0 -176 -20v-637z" />
<glyph unicode="&#xdf;" horiz-adv-x="1384" d="M59 0v106l158 39v729q0 227 75 385t206 237t299 79q143 0 240.5 -69.5t97.5 -219.5q0 -86 -33 -144.5t-94 -123.5q-51 -57 -76 -97t-25 -94q0 -66 46 -104.5t145 -83.5q82 -39 134 -73t89 -90t37 -140q0 -178 -120 -267t-312 -89q-180 0 -252 26v182q49 -31 118.5 -56.5 t125.5 -25.5q86 0 142 43.5t56 133.5q0 66 -47 103.5t-143 82.5q-78 35 -126 64.5t-82 79t-34 122.5q0 51 25.5 98.5t76.5 114.5q61 84 91 142.5t30 132.5q0 98 -44 158.5t-130 60.5q-102 0 -160.5 -54.5t-82 -169t-23.5 -305.5v-913h-408z" />
<glyph unicode="&#xe0;" horiz-adv-x="1173" d="M100 0zM100 287q0 135 100.5 223t250 128t301.5 40v61q0 139 -63.5 194.5t-188.5 55.5q-68 0 -154 -22.5t-149 -57.5l-47 113q70 57 199.5 89t238.5 32q198 0 307 -88t109 -295v-656h126v-81q-37 -23 -96 -36.5t-116 -13.5q-74 0 -107 30t-35 97q-113 -127 -317 -127 q-104 0 -186.5 40t-127.5 112t-45 162zM295 1638l187 168l301 -401l-66 -66q-98 23 -228 114t-194 185zM354 324q0 -199 211 -199q49 0 101.5 20.5t83.5 49.5l2 360q-154 0 -276 -55.5t-122 -175.5z" />
<glyph unicode="&#xe1;" horiz-adv-x="1173" d="M100 0zM100 287q0 135 100.5 223t250 128t301.5 40v61q0 139 -63.5 194.5t-188.5 55.5q-68 0 -154 -22.5t-149 -57.5l-47 113q70 57 199.5 89t238.5 32q198 0 307 -88t109 -295v-656h126v-81q-37 -23 -96 -36.5t-116 -13.5q-74 0 -107 30t-35 97q-113 -127 -317 -127 q-104 0 -186.5 40t-127.5 112t-45 162zM354 324q0 -199 211 -199q49 0 101.5 20.5t83.5 49.5l2 360q-154 0 -276 -55.5t-122 -175.5zM446 1405l301 401l187 -168q-57 -90 -179 -172t-243 -129z" />
<glyph unicode="&#xe2;" horiz-adv-x="1173" d="M100 0zM100 287q0 135 100.5 223t250 128t301.5 40v61q0 139 -63.5 194.5t-188.5 55.5q-68 0 -154 -22.5t-149 -57.5l-47 113q70 57 199.5 89t238.5 32q198 0 307 -88t109 -295v-656h126v-81q-37 -23 -96 -36.5t-116 -13.5q-74 0 -107 30t-35 97q-113 -127 -317 -127 q-104 0 -186.5 40t-127.5 112t-45 162zM213 1391l270 385h217l266 -383l-108 -58l-267 246l-282 -246zM354 324q0 -199 211 -199q49 0 101.5 20.5t83.5 49.5l2 360q-154 0 -276 -55.5t-122 -175.5z" />
<glyph unicode="&#xe3;" horiz-adv-x="1173" d="M100 0zM100 287q0 135 100.5 223t250 128t301.5 40v61q0 139 -63.5 194.5t-188.5 55.5q-68 0 -154 -22.5t-149 -57.5l-47 113q70 57 199.5 89t238.5 32q198 0 307 -88t109 -295v-656h126v-81q-37 -23 -96 -36.5t-116 -13.5q-74 0 -107 30t-35 97q-113 -127 -317 -127 q-104 0 -186.5 40t-127.5 112t-45 162zM182 1483q37 71 124 128.5t165 57.5q49 0 82.5 -17.5t76.5 -52.5q6 -4 28.5 -20t43 -24.5t41.5 -8.5q49 0 91 23.5t85 62.5l66 -82q-37 -74 -122 -131t-163 -57q-51 0 -87 18.5t-77 51.5q-33 27 -57.5 40t-53.5 13q-78 0 -178 -86z M354 324q0 -199 211 -199q49 0 101.5 20.5t83.5 49.5l2 360q-154 0 -276 -55.5t-122 -175.5z" />
<glyph unicode="&#xe4;" horiz-adv-x="1173" d="M100 0zM100 287q0 135 100.5 223t250 128t301.5 40v61q0 139 -63.5 194.5t-188.5 55.5q-68 0 -154 -22.5t-149 -57.5l-47 113q70 57 199.5 89t238.5 32q198 0 307 -88t109 -295v-656h126v-81q-37 -23 -96 -36.5t-116 -13.5q-74 0 -107 30t-35 97q-113 -127 -317 -127 q-104 0 -186.5 40t-127.5 112t-45 162zM188 1495q0 66 52.5 110t117.5 44q70 0 109 -35t39 -96q0 -68 -53.5 -109t-119.5 -41q-61 0 -103 35t-42 92zM354 324q0 -199 211 -199q49 0 101.5 20.5t83.5 49.5l2 360q-154 0 -276 -55.5t-122 -175.5zM675 1497q0 63 53.5 107.5 t114.5 44.5q72 0 110 -35t38 -94q0 -70 -51.5 -111t-120.5 -41q-62 0 -103 35t-41 94z" />
<glyph unicode="&#xe5;" horiz-adv-x="1173" d="M100 0zM100 287q0 135 100.5 223t250 128t301.5 40v61q0 139 -63.5 194.5t-188.5 55.5q-68 0 -154 -22.5t-149 -57.5l-47 113q70 57 199.5 89t238.5 32q198 0 307 -88t109 -295v-656h126v-81q-37 -23 -96 -36.5t-116 -13.5q-74 0 -107 30t-35 97q-113 -127 -317 -127 q-104 0 -186.5 40t-127.5 112t-45 162zM303 1561q0 70 36.5 128t97 92t132.5 34t134.5 -35t98 -93.5t35.5 -125.5q0 -70 -36.5 -128.5t-98 -91t-133.5 -32.5t-132.5 33.5t-97 91t-36.5 127.5zM354 324q0 -199 211 -199q49 0 101.5 20.5t83.5 49.5l2 360q-154 0 -276 -55.5 t-122 -175.5zM438 1559q0 -55 38 -93.5t95 -38.5q55 0 93 38t38 94q0 53 -39 93t-92 40q-57 0 -95 -39t-38 -94z" />
<glyph unicode="&#xe6;" horiz-adv-x="1832" d="M100 287q0 139 105.5 227t255 126t291.5 38v61q0 139 -62.5 192.5t-189.5 53.5q-68 0 -156 -22.5t-147 -55.5l-50 115q70 57 201 89t238 32q121 0 210 -32t142 -107q78 72 178.5 110.5t216.5 38.5q193 0 300.5 -112.5t111.5 -319.5q4 -66 -3 -118t-9 -64h-727 q6 -215 109.5 -309.5t254.5 -94.5q76 0 168 18.5t148 45.5l43 -101q-66 -57 -195 -91t-250 -34q-260 0 -405 166q-66 -78 -177.5 -122t-242.5 -44q-104 0 -186.5 41t-127.5 112t-45 161zM354 324q0 -199 211 -199q45 0 100.5 19.5t84.5 43.5l2 367q-154 0 -276 -55.5 t-122 -175.5zM1008 674h483q2 20 2 65q0 152 -66 199q-37 94 -143 94q-113 0 -188.5 -93t-87.5 -265z" />
<glyph unicode="&#xe7;" horiz-adv-x="1075" d="M92 541q0 180 76 316t208 212t300 80q84 4 173 -10.5t132 -38.5v-271h-127l-61 150q-51 39 -152 39q-133 0 -216 -110.5t-83 -299.5q0 -152 48 -258t128 -159.5t174 -53.5q78 0 160 17.5t123 44.5l43 -101q-55 -49 -148.5 -79.5t-203.5 -38.5l-2 -48q0 -27 4 -59h-4 q115 -2 177 -59.5t62 -130.5q0 -106 -84 -158.5t-219 -52.5q-66 0 -113 11t-61 13l2 119q16 -6 53 -10t62 -4q55 0 84.5 18.5t29.5 71.5q0 39 -31.5 61.5t-90.5 22.5q-18 0 -32 -2t-20 -2q0 41 10.5 102t26.5 111q-203 27 -315.5 177t-112.5 380z" />
<glyph unicode="&#xe8;" horiz-adv-x="1177" d="M90 0zM90 547q0 174 74 312t205 216t299 78q196 0 305.5 -116.5t109.5 -327.5q0 -90 -14 -170h-723q4 -190 97.5 -297t265.5 -107q76 0 161.5 17.5t139.5 44.5l43 -99q-66 -57 -191 -91t-248 -34q-250 2 -387 156t-137 418zM333 1638l187 168l301 -401l-66 -66 q-98 23 -228 114t-194 185zM348 674h479q2 23 2 67q0 152 -65 213q-41 78 -143 78q-113 0 -186 -92t-87 -266z" />
<glyph unicode="&#xe9;" horiz-adv-x="1177" d="M90 0zM90 547q0 174 74 312t205 216t299 78q196 0 305.5 -116.5t109.5 -327.5q0 -90 -14 -170h-723q4 -190 97.5 -297t265.5 -107q76 0 161.5 17.5t139.5 44.5l43 -99q-66 -57 -191 -91t-248 -34q-250 2 -387 156t-137 418zM348 674h479q2 23 2 67q0 152 -65 213 q-41 78 -143 78q-113 0 -186 -92t-87 -266zM487 1405l301 401l187 -168q-57 -90 -179 -172t-243 -129z" />
<glyph unicode="&#xea;" horiz-adv-x="1177" d="M90 0zM90 547q0 174 74 312t205 216t299 78q196 0 305.5 -116.5t109.5 -327.5q0 -90 -14 -170h-723q4 -190 97.5 -297t265.5 -107q76 0 161.5 17.5t139.5 44.5l43 -99q-66 -57 -191 -91t-248 -34q-250 2 -387 156t-137 418zM254 1391l270 385h217l266 -383l-108 -58 l-267 246l-282 -246zM348 674h479q2 23 2 67q0 152 -65 213q-41 78 -143 78q-113 0 -186 -92t-87 -266z" />
<glyph unicode="&#xeb;" horiz-adv-x="1177" d="M90 0zM90 547q0 174 74 312t205 216t299 78q196 0 305.5 -116.5t109.5 -327.5q0 -90 -14 -170h-723q4 -190 97.5 -297t265.5 -107q76 0 161.5 17.5t139.5 44.5l43 -99q-66 -57 -191 -91t-248 -34q-250 2 -387 156t-137 418zM229 1495q0 66 52.5 110t117.5 44 q70 0 109 -35t39 -96q0 -68 -53.5 -109t-119.5 -41q-61 0 -103 35t-42 92zM348 674h479q2 23 2 67q0 152 -65 213q-41 78 -143 78q-113 0 -186 -92t-87 -266zM716 1497q0 63 53.5 107.5t114.5 44.5q72 0 110 -35t38 -94q0 -70 -51.5 -111t-120.5 -41q-62 0 -103 35t-41 94z " />
<glyph unicode="&#xec;" horiz-adv-x="704" d="M70 1638l186 168l301 -401l-65 -66q-97 23 -228 113t-194 186zM100 0v104l158 23v747l-135 99v74l321 98l60 -21v-997l153 -23v-104h-557z" />
<glyph unicode="&#xed;" horiz-adv-x="704" d="M100 0v104l158 23v747l-135 99v74l321 96l60 -21v-995l155 -23v-104h-559zM100 0zM225 1405l301 401l187 -168q-57 -90 -179 -172t-243 -129z" />
<glyph unicode="&#xee;" horiz-adv-x="704" d="M-12 1391l272 385h213l268 -383l-108 -58l-268 246l-281 -246zM100 0v104l158 23v747l-135 99v74l321 98l60 -21v-997l153 -23v-104h-557z" />
<glyph unicode="&#xef;" horiz-adv-x="704" d="M-37 1495q0 66 52.5 110t117.5 44q70 0 109 -35t39 -96q0 -68 -53.5 -109t-119.5 -41q-61 0 -103 35t-42 92zM0 0zM100 0v104l158 23v747l-135 99v74l321 96l60 -21v-995l155 -23v-104h-559zM450 1497q0 63 53.5 107.5t114.5 44.5q72 0 110 -35t38 -94q0 -70 -51.5 -111 t-120.5 -41q-62 0 -103 35t-41 94z" />
<glyph unicode="&#xf0;" horiz-adv-x="1263" d="M88 502q0 170 70.5 291.5t192.5 186t274 64.5q80 0 164.5 -33.5t132.5 -84.5q-29 133 -104 250.5t-181 209.5l-168 -147l-100 82l159 147q-106 68 -213 95l27 125q160 -39 295 -115l111 96l59 55l106 -90l-159 -139q207 -158 311 -384t104 -480q0 -319 -150.5 -488.5 t-410.5 -169.5q-154 0 -271.5 69t-183 188.5t-65.5 271.5zM352 514q0 -109 35 -204t100.5 -154.5t153.5 -59.5q129 0 200.5 136.5t71.5 326.5q0 84 -6 111q-20 90 -93 169t-187 79q-146 0 -210.5 -104.5t-64.5 -299.5z" />
<glyph unicode="&#xf1;" horiz-adv-x="1421" d="M115 0zM115 967v86l305 90l55 -19v-145q78 70 198 117t224 47q176 0 246.5 -110.5t70.5 -352.5v-555l152 -21v-104h-553v104l150 23v514q0 121 -16.5 189.5t-61.5 101.5t-131 33q-53 0 -122 -20.5t-124 -61.5v-756l139 -23v-104h-524v104l131 21v758zM348 1483 q37 71 124 128.5t165 57.5q49 0 82.5 -17.5t76.5 -52.5q6 -4 28.5 -20t43 -24.5t41.5 -8.5q49 0 91 23.5t85 62.5l66 -82q-37 -74 -122 -131t-163 -57q-51 0 -87 18.5t-77 51.5q-33 27 -57.5 40t-53.5 13q-78 0 -178 -86z" />
<glyph unicode="&#xf2;" horiz-adv-x="1267" d="M92 0zM92 563q0 180 76 313.5t204 205t285 71.5q254 0 387.5 -154.5t133.5 -412.5q0 -180 -72 -318.5t-197 -215.5t-282 -77q-264 0 -399.5 163t-135.5 425zM352 1638l187 168l301 -401l-66 -66q-98 23 -228 114t-194 185zM360 592q0 -201 70 -344.5t207 -145.5 q150 -2 212 119t62 346q0 207 -66.5 335t-207.5 128q-277 0 -277 -438z" />
<glyph unicode="&#xf3;" horiz-adv-x="1267" d="M92 0zM92 563q0 180 76 313.5t204 205t285 71.5q254 0 387.5 -154.5t133.5 -412.5q0 -180 -72 -318.5t-197 -215.5t-282 -77q-264 0 -399.5 163t-135.5 425zM360 592q0 -201 70 -344.5t207 -145.5q150 -2 212 119t62 346q0 207 -66.5 335t-207.5 128q-277 0 -277 -438z M503 1405l301 401l187 -168q-57 -90 -179 -172t-243 -129z" />
<glyph unicode="&#xf4;" horiz-adv-x="1267" d="M92 0zM92 563q0 180 76 313.5t204 205t285 71.5q254 0 387.5 -154.5t133.5 -412.5q0 -180 -72 -318.5t-197 -215.5t-282 -77q-264 0 -399.5 163t-135.5 425zM269 1391l270 385h217l266 -383l-108 -58l-267 246l-282 -246zM360 592q0 -201 70 -344.5t207 -145.5 q150 -2 212 119t62 346q0 207 -66.5 335t-207.5 128q-277 0 -277 -438z" />
<glyph unicode="&#xf5;" horiz-adv-x="1267" d="M92 0zM92 563q0 180 76 313.5t204 205t285 71.5q254 0 387.5 -154.5t133.5 -412.5q0 -180 -72 -318.5t-197 -215.5t-282 -77q-264 0 -399.5 163t-135.5 425zM238 1483q37 71 124 128.5t165 57.5q49 0 82.5 -17.5t76.5 -52.5q6 -4 28.5 -20t43 -24.5t41.5 -8.5 q49 0 91 23.5t85 62.5l66 -82q-37 -74 -122 -131t-163 -57q-51 0 -87 18.5t-77 51.5q-33 27 -57.5 40t-53.5 13q-78 0 -178 -86zM360 592q0 -201 70 -344.5t207 -145.5q150 -2 212 119t62 346q0 207 -66.5 335t-207.5 128q-277 0 -277 -438z" />
<glyph unicode="&#xf6;" horiz-adv-x="1267" d="M92 0zM92 563q0 180 76 313.5t204 205t285 71.5q254 0 387.5 -154.5t133.5 -412.5q0 -180 -72 -318.5t-197 -215.5t-282 -77q-264 0 -399.5 163t-135.5 425zM244 1495q0 66 52.5 110t117.5 44q70 0 109 -35t39 -96q0 -68 -53.5 -109t-119.5 -41q-61 0 -103 35t-42 92z M360 592q0 -201 70 -344.5t207 -145.5q150 -2 212 119t62 346q0 207 -66.5 335t-207.5 128q-277 0 -277 -438zM731 1497q0 63 53.5 107.5t114.5 44.5q72 0 110 -35t38 -94q0 -70 -51.5 -111t-120.5 -41q-62 0 -103 35t-41 94z" />
<glyph unicode="&#xf7;" horiz-adv-x="1323" d="M180 725v180h965v-180h-965zM506 367q0 72 56 124t124 52q76 0 116 -40t40 -108q0 -76 -56.5 -125t-130.5 -49q-61 0 -105 41t-44 105zM508 1231q0 70 56.5 122t123.5 52q76 0 115 -40t39 -110q0 -74 -54.5 -123t-128.5 -49q-63 0 -107 41t-44 107z" />
<glyph unicode="&#xf8;" horiz-adv-x="1267" d="M92 557q0 182 74 315.5t202 205t285 75.5q68 0 129 -12l54 164l92 -29l-54 -164q147 -59 225.5 -197.5t78.5 -326.5q0 -180 -72 -319.5t-198 -216.5t-281 -77q-59 0 -127 15l-62 -189l-96 31l61 182q-157 62 -234 206.5t-77 336.5zM360 592q0 -117 28 -224.5t79 -172.5 l266 817q-43 18 -96 18q-276 0 -277 -438zM547 123q37 -21 94 -21q145 0 206.5 120t61.5 345q0 258 -94 375z" />
<glyph unicode="&#xf9;" horiz-adv-x="1306" d="M90 981v94l303 68l41 -19v-690q0 -160 40 -228.5t153 -68.5q66 0 136.5 29t102.5 59v701l-125 45v102l334 70l37 -17v-1022h119v-90q-31 -18 -100.5 -32.5t-120.5 -14.5q-55 0 -87 23.5t-32 70.5v68q-72 -70 -168 -111t-184 -41q-147 0 -222 54.5t-99.5 151t-27.5 253.5 v500zM332 1638l186 168l301 -401l-65 -66q-97 23 -227 113t-195 186z" />
<glyph unicode="&#xfa;" horiz-adv-x="1306" d="M90 981v94l303 68l41 -19v-690q0 -160 40 -228.5t153 -68.5q66 0 136.5 29t102.5 59v701l-125 45v102l334 70l37 -17v-1022h119v-90q-31 -18 -100.5 -32.5t-120.5 -14.5q-55 0 -87 23.5t-32 70.5v68q-72 -70 -168 -111t-184 -41q-147 0 -222 54.5t-99.5 151t-27.5 253.5 v500zM485 1405l301 401l187 -168q-57 -90 -179 -172t-243 -129z" />
<glyph unicode="&#xfb;" horiz-adv-x="1306" d="M90 981v94l303 68l41 -19v-690q0 -160 40 -228.5t153 -68.5q66 0 136.5 29t102.5 59v701l-125 45v102l334 70l37 -17v-1022h119v-90q-31 -18 -100.5 -32.5t-120.5 -14.5q-55 0 -87 23.5t-32 70.5v68q-72 -70 -168 -111t-184 -41q-147 0 -222 54.5t-99.5 151t-27.5 253.5 v500zM250 1391l270 385h215l269 -383l-109 -58l-266 246l-283 -246z" />
<glyph unicode="&#xfc;" horiz-adv-x="1306" d="M90 0zM90 981v94l303 68l41 -19v-690q0 -160 40 -228.5t153 -68.5q66 0 136.5 29t102.5 59v701l-125 45v102l334 70l37 -17v-1022h119v-90q-31 -18 -100.5 -32.5t-120.5 -14.5q-55 0 -87 23.5t-32 70.5v68q-72 -70 -168 -111t-184 -41q-147 0 -222 54.5t-99.5 151 t-27.5 253.5v500zM227 1495q0 66 52.5 110t117.5 44q70 0 109 -35t39 -96q0 -68 -53.5 -109t-119.5 -41q-61 0 -103 35t-42 92zM714 1497q0 63 53.5 107.5t114.5 44.5q72 0 110 -35t38 -94q0 -70 -51.5 -111t-120.5 -41q-62 0 -103 35t-41 94z" />
<glyph unicode="&#xfd;" horiz-adv-x="1179" d="M2 0zM2 987v131h508v-131l-133 -22l219 -623l49 -164l49 166l187 623l-150 20v131h459v-131l-105 -18q-111 -322 -221 -617t-151 -397q-74 -184 -143.5 -286.5t-161.5 -141.5q-63 -51 -152 -51q-31 0 -64.5 4t-44.5 10v201q50 -15 105 -13q90 0 168 76t127 248h-49 l-398 963zM487 1405l301 401l187 -168q-57 -90 -179 -172t-243 -129z" />
<glyph unicode="&#xfe;" horiz-adv-x="1292" d="M37 1479v106l358 41l47 -16v-563q63 47 136 76.5t167 29.5q131 0 234.5 -60.5t164 -184.5t60.5 -304q0 -172 -75.5 -316.5t-211 -230.5t-303.5 -86q-88 0 -180 17l8 -90v-281l201 -23v-106h-596v106l143 25v1817zM442 174q16 -39 70.5 -60.5t128.5 -21.5q90 0 160.5 59.5 t109.5 173t39 267.5q0 129 -42 221t-111.5 139t-153.5 47q-63 0 -115.5 -19t-85.5 -48v-758z" />
<glyph unicode="&#xff;" horiz-adv-x="1179" d="M2 0zM2 987v131h508v-131l-133 -22l219 -623l49 -164l49 166l187 623l-150 20v131h459v-131l-105 -18q-111 -322 -221 -617t-151 -397q-74 -184 -143.5 -286.5t-161.5 -141.5q-63 -51 -152 -51q-31 0 -64.5 4t-44.5 10v201q50 -15 105 -13q90 0 168 76t127 248h-49 l-398 963zM229 1495q0 66 52.5 110t117.5 44q70 0 109 -35t39 -96q0 -68 -53.5 -109t-119.5 -41q-61 0 -103 35t-42 92zM716 1497q0 63 53.5 107.5t114.5 44.5q72 0 110 -35t38 -94q0 -70 -51.5 -111t-120.5 -41q-62 0 -103 35t-41 94z" />
<glyph unicode="&#x152;" horiz-adv-x="2121" d="M82 731q0 246 96 434.5t262 293t369 108.5q70 1 156 -15h983l30 -305h-133l-63 164l-471 16v-561l329 8l35 152h123v-451h-123l-35 156l-329 6v-610l522 23l111 202l124 -28l-47 -324h-1048q-115 -29 -203 -29q-205 0 -360.5 98.5t-241.5 271.5t-86 390zM362 754 q0 -168 52.5 -318.5t151 -244t233.5 -93.5q160 0 260 111v1089q-111 141 -264 142q-213 0 -323 -183.5t-110 -502.5z" />
<glyph unicode="&#x153;" horiz-adv-x="2076" d="M92 561q0 180 76 314.5t205 206t286 71.5q156 0 266.5 -62.5t176.5 -177.5q76 113 196.5 176.5t274.5 63.5q196 0 305 -116.5t109 -327.5q0 -80 -13 -170h-725q4 -190 98.5 -297t264.5 -107q76 0 162 17.5t141 44.5l43 -99q-66 -57 -192 -91t-246 -34q-156 2 -269.5 63.5 t-177.5 176.5q-74 -113 -192.5 -175.5t-253.5 -62.5q-178 0 -298 77t-178.5 209t-58.5 300zM360 592q0 -201 70 -344.5t207 -145.5q150 -2 212 119t62 346q0 207 -66.5 335t-207.5 128q-277 0 -277 -438zM1251 674h480q2 20 2 61q0 158 -68 219q-37 78 -141 78 q-115 0 -187.5 -92t-85.5 -266z" />
<glyph unicode="&#x178;" horiz-adv-x="1396" d="M12 0zM12 1430v122h543v-120l-137 -19l293 -567l43 -101l41 105l258 559l-166 21v122h497v-122l-131 -31l-401 -795v-461l235 -37v-106h-706v106l219 35v453l-475 819zM303 1767q0 66 53.5 111t116.5 45q70 0 110 -37t40 -96q0 -66 -53.5 -109t-120.5 -43 q-59 0 -102.5 35t-43.5 94zM838 1767q0 66 53.5 111t116.5 45q70 0 107.5 -36t37.5 -97q0 -66 -49 -109t-121 -43q-61 0 -103 36t-42 93z" />
<glyph unicode="&#x2c6;" horiz-adv-x="1062" d="M152 1391l270 385h217l266 -383l-108 -58l-267 246l-282 -246z" />
<glyph unicode="&#x2dc;" horiz-adv-x="956" d="M76 1483q37 71 124 128.5t165 57.5q49 0 82.5 -17.5t76.5 -52.5q6 -4 28.5 -20t43 -24.5t41.5 -8.5q49 0 91 23.5t85 62.5l66 -82q-37 -74 -122 -131t-163 -57q-51 0 -87 18.5t-77 51.5q-33 27 -57.5 40t-53.5 13q-78 0 -178 -86z" />
<glyph unicode="&#x2000;" horiz-adv-x="961" />
<glyph unicode="&#x2001;" horiz-adv-x="1923" />
<glyph unicode="&#x2002;" horiz-adv-x="961" />
<glyph unicode="&#x2003;" horiz-adv-x="1923" />
<glyph unicode="&#x2004;" horiz-adv-x="641" />
<glyph unicode="&#x2005;" horiz-adv-x="480" />
<glyph unicode="&#x2006;" horiz-adv-x="320" />
<glyph unicode="&#x2007;" horiz-adv-x="320" />
<glyph unicode="&#x2008;" horiz-adv-x="240" />
<glyph unicode="&#x2009;" horiz-adv-x="384" />
<glyph unicode="&#x200a;" horiz-adv-x="106" />
<glyph unicode="&#x2010;" horiz-adv-x="1269" d="M180 725v180h910v-180h-910z" />
<glyph unicode="&#x2011;" horiz-adv-x="1269" d="M180 725v180h910v-180h-910z" />
<glyph unicode="&#x2012;" horiz-adv-x="1269" d="M180 725v180h910v-180h-910z" />
<glyph unicode="&#x2013;" horiz-adv-x="1425" d="M180 725l2 180h1063v-180h-1065z" />
<glyph unicode="&#x2014;" horiz-adv-x="2408" d="M180 725v180h2048v-180h-2048z" />
<glyph unicode="&#x2018;" horiz-adv-x="825" d="M199 1237q2 172 105.5 306t252.5 194l68 -74v-31q-72 -25 -128.5 -116t-56.5 -181q0 -72 45 -135t103 -70v-57l-154 -196q-115 34 -175 139.5t-60 220.5z" />
<glyph unicode="&#x2019;" horiz-adv-x="825" d="M205 963v30q72 25 128 116t56 181q0 74 -45 136.5t-102 68.5v57l153 199q115 -35 175.5 -139.5t60.5 -216.5q0 -174 -104.5 -310.5t-254.5 -193.5z" />
<glyph unicode="&#x201a;" horiz-adv-x="827" d="M205 -410q74 29 128 113t54 174q0 76 -44 137.5t-101 67.5v57l153 199q115 -35 175.5 -140.5t60.5 -215.5q0 -174 -100.5 -303.5t-258.5 -192.5l-67 74v30z" />
<glyph unicode="&#x201c;" horiz-adv-x="1384" d="M199 1237q0 170 104.5 305t253.5 193l68 -72v-31q-74 -27 -129.5 -117t-55.5 -180q0 -74 45 -136t103 -69v-57l-154 -196q-115 32 -175 139.5t-60 220.5zM756 1237q0 170 104.5 305t251.5 193l70 -72v-31q-74 -27 -129.5 -117t-55.5 -180q0 -74 46.5 -136t103.5 -69v-57 l-158 -196q-112 32 -172.5 139.5t-60.5 220.5z" />
<glyph unicode="&#x201d;" horiz-adv-x="1400" d="M203 961v32q72 23 128 114t56 183q0 74 -45 136.5t-102 68.5v55l153 199q115 -33 175.5 -138.5t60.5 -215.5q0 -176 -104.5 -313.5t-254.5 -192.5zM776 961v32q70 23 127.5 115t57.5 182q0 72 -45.5 135.5t-102.5 69.5v55l154 199q113 -33 174 -138.5t61 -215.5 q0 -117 -49 -219.5t-131 -177t-178 -109.5z" />
<glyph unicode="&#x201e;" horiz-adv-x="1384" d="M201 -416q72 23 128 114t56 181q0 76 -45 138.5t-102 66.5v57l155 199q111 -31 172.5 -136.5t61.5 -215.5q0 -117 -49.5 -220.5t-131 -178t-176.5 -109.5l-69 71v33zM758 -416q70 23 127 114t57 181q0 74 -45 137.5t-102 67.5v57l153 199q115 -33 175.5 -138.5 t60.5 -217.5q0 -174 -104.5 -310.5t-254.5 -193.5l-67 71v33z" />
<glyph unicode="&#x2022;" horiz-adv-x="868" d="M184 723q0 74 37 137.5t98.5 101t131.5 37.5q98 0 169.5 -69.5t71.5 -167.5q0 -76 -37 -139.5t-98 -101.5t-131 -38q-98 0 -170 71t-72 169z" />
<glyph unicode="&#x2026;" horiz-adv-x="2215" d="M203 121q0 72 57 125t125 53q76 0 117 -42t41 -110q0 -74 -56.5 -123t-128.5 -49q-63 0 -109 41t-46 105zM942 121q0 72 57.5 125t122.5 53q76 0 117 -42t41 -110q0 -74 -55.5 -123t-128.5 -49q-63 0 -108.5 41t-45.5 105zM1677 121q0 47 28 89t70 65.5t85 23.5 q75 0 115 -41t40 -111q0 -76 -55 -124t-127 -48q-63 0 -109.5 41t-46.5 105z" />
<glyph unicode="&#x202f;" horiz-adv-x="384" />
<glyph unicode="&#x2039;" horiz-adv-x="1222" d="M240 500v217l680 383l63 -105l-491 -381l491 -364l-63 -113z" />
<glyph unicode="&#x203a;" horiz-adv-x="1222" d="M238 240l489 381l-489 366l63 113l680 -363v-217l-680 -383z" />
<glyph unicode="&#x205f;" horiz-adv-x="480" />
<glyph unicode="&#x20ac;" horiz-adv-x="1499" d="M6 551v141h189q2 10 2 29q0 100 10 170h-170v145h201q70 254 249 392.5t437 138.5q82 0 149.5 -12.5t151.5 -32.5q82 -25 131 -27l-19 -321h-112l-60 174q-57 41 -129.5 59t-173.5 18q-162 0 -253 -99t-122 -290h523v-145h-535q-4 -31 -4 -111q0 -63 2 -88h512v-141h-502 q25 -213 121 -331t287 -118q94 0 151.5 17.5t114.5 58.5q39 76 74 201h123v-316q-29 2 -66 -7t-76 -21q-86 -29 -168.5 -46.5t-199.5 -17.5q-266 0 -429 155t-206 425h-203z" />
<glyph unicode="&#x2122;" horiz-adv-x="2260" d="M174 1307l19 245h704l4 -241l-72 -8l-32 129l-152 16v-571l125 -19v-82h-442v82l118 19v569l-153 -16l-41 -121zM975 776v82l110 19l29 571l-98 10v94h366l146 -397l37 -131l170 528h329v-94l-92 -10l51 -569l99 -21v-82h-371v82l84 16l-18 361l-5 217l-18 -68l-207 -616 h-100l-219 551l-49 135l2 -156l-17 -421l96 -19v-82h-325z" />
<glyph unicode="&#x25fc;" horiz-adv-x="1116" d="M0 0v1116h1116v-1116h-1116z" />
<glyph unicode="&#xfb03;" horiz-adv-x="2457" d="M76 958v89l207 65v90q0 137 66.5 253t169 183.5t204.5 67.5q59 0 105 -7t65 -18v-202q-27 14 -85 27.5t-114 13.5q-59 0 -93 -17.5t-50 -65.5t-16 -143v-176h301v-160h-301v-831l233 -23v-104h-672v104l187 25v829h-207zM952 958v89l207 65v90q0 137 65.5 253t169 183.5 t205.5 67.5q125 0 170 -25v-202q-29 14 -86 27.5t-112 13.5q-59 0 -93 -17.5t-50.5 -65.5t-16.5 -143v-176h301v-160h-301v-831l234 -23v-104h-674v104l188 25v829h-207zM1851 0v104l158 23v747l-133 99v74l319 96l60 -21v-995l155 -23v-104h-559zM1937 1503q0 72 58.5 123 t126.5 51q76 0 115.5 -40t39.5 -107q0 -78 -55 -126t-129 -48q-63 0 -109.5 41t-46.5 106z" />
<glyph unicode="&#xfb04;" horiz-adv-x="2461" d="M76 958v89l207 65v90q0 137 66.5 253t169 183.5t204.5 67.5q59 0 105 -7t65 -18v-202q-27 14 -85 27.5t-114 13.5q-59 0 -93 -17.5t-50 -65.5t-16 -143v-176h301v-160h-301v-831l233 -23v-104h-672v104l187 25v829h-207zM952 958v89l207 65v90q0 137 65.5 253t169 183.5 t205.5 67.5q125 0 170 -25v-202q-29 14 -86 27.5t-112 13.5q-59 0 -93 -17.5t-50.5 -65.5t-16.5 -143v-176h301v-160h-301v-831l234 -23v-104h-674v104l188 25v829h-207zM1845 0v104l152 23v1305l-150 43v108l357 43l45 -20v-1477l178 -25v-104h-582z" />
</font>
</defs>
</svg>
